solid shark
facet normal -0.615 0.235 0.753
outer loop
vertex 0 0 0.035
vertex 0.222 0 0.217
vertex 0 0.015 0.03
endloop
endfacet
facet normal -0.61 0.261 0.748
outer loop
vertex 0 0.015 0.03
vertex 0.222 0 0.217
vertex 0.222 0.079 0.189
endloop
endfacet
facet normal -0.564 0.627 0.537
outer loop
vertex 0 0.015 0.03
vertex 0.222 0.079 0.189
vertex 0 0.026 0.018
endloop
endfacet
facet normal -0.55 0.662 0.509
outer loop
vertex 0 0.026 0.018
vertex 0.222 0.079 0.189
vertex 0.222 0.137 0.114
endloop
endfacet
facet normal -0.503 0.842 0.193
outer loop
vertex 0 0.026 0.018
vertex 0.222 0.137 0.114
vertex 0 0.03 0
endloop
endfacet
facet normal -0.498 0.85 0.175
outer loop
vertex 0 0.03 0
vertex 0.222 0.137 0.114
vertex 0.222 0.158 0.011
endloop
endfacet
facet normal -0.475 0.847 -0.237
outer loop
vertex 0 0.03 0
vertex 0.222 0.158 0.011
vertex 0 0.026 -0.014
endloop
endfacet
facet normal -0.48 0.851 -0.213
outer loop
vertex 0 0.026 -0.014
vertex 0.222 0.158 0.011
vertex 0.222 0.137 -0.073
endloop
endfacet
facet normal -0.472 0.609 -0.637
outer loop
vertex 0 0.026 -0.014
vertex 0.222 0.137 -0.073
vertex 0 0.015 -0.025
endloop
endfacet
facet normal -0.481 0.64 -0.599
outer loop
vertex 0 0.015 -0.025
vertex 0.222 0.137 -0.073
vertex 0.222 0.079 -0.135
endloop
endfacet
facet normal -0.483 0.217 -0.848
outer loop
vertex 0 0.015 -0.025
vertex 0.222 0.079 -0.135
vertex 0 0 -0.029
endloop
endfacet
facet normal -0.487 0.24 -0.84
outer loop
vertex 0 0 -0.029
vertex 0.222 0.079 -0.135
vertex 0.222 0 -0.157
endloop
endfacet
facet normal -0.489 -0.217 -0.845
outer loop
vertex 0 0 -0.029
vertex 0.222 0 -0.157
vertex 0 -0.015 -0.025
endloop
endfacet
facet normal -0.485 -0.241 -0.841
outer loop
vertex 0 -0.015 -0.025
vertex 0.222 0 -0.157
vertex 0.222 -0.079 -0.135
endloop
endfacet
facet normal -0.486 -0.604 -0.631
outer loop
vertex 0 -0.015 -0.025
vertex 0.222 -0.079 -0.135
vertex 0 -0.026 -0.014
endloop
endfacet
facet normal -0.478 -0.641 -0.6
outer loop
vertex 0 -0.026 -0.014
vertex 0.222 -0.079 -0.135
vertex 0.222 -0.137 -0.073
endloop
endfacet
facet normal -0.483 -0.843 -0.236
outer loop
vertex 0 -0.026 -0.014
vertex 0.222 -0.137 -0.073
vertex 0 -0.03 -0
endloop
endfacet
facet normal -0.479 -0.851 -0.214
outer loop
vertex 0 -0.03 -0
vertex 0.222 -0.137 -0.073
vertex 0.222 -0.158 0.011
endloop
endfacet
facet normal -0.496 -0.846 0.194
outer loop
vertex 0 -0.03 -0
vertex 0.222 -0.158 0.011
vertex 0 -0.026 0.018
endloop
endfacet
facet normal -0.499 -0.849 0.175
outer loop
vertex 0 -0.026 0.018
vertex 0.222 -0.158 0.011
vertex 0.222 -0.137 0.114
endloop
endfacet
facet normal -0.551 -0.634 0.543
outer loop
vertex 0 -0.026 0.018
vertex 0.222 -0.137 0.114
vertex 0 -0.015 0.03
endloop
endfacet
facet normal -0.553 -0.661 0.508
outer loop
vertex 0 -0.015 0.03
vertex 0.222 -0.137 0.114
vertex 0.222 -0.079 0.189
endloop
endfacet
facet normal -0.609 -0.237 0.757
outer loop
vertex 0 -0.015 0.03
vertex 0.222 -0.079 0.189
vertex 0 0 0.035
endloop
endfacet
facet normal -0.611 -0.261 0.747
outer loop
vertex 0 0 0.035
vertex 0.222 -0.079 0.189
vertex 0.222 0 0.217
endloop
endfacet
facet normal -0.486 0.288 0.825
outer loop
vertex 0.222 0 0.217
vertex 0.444 0 0.348
vertex 0.222 0.079 0.189
endloop
endfacet
facet normal -0.491 0.276 0.826
outer loop
vertex 0.222 0.079 0.189
vertex 0.444 0 0.348
vertex 0.444 0.13 0.304
endloop
endfacet
facet normal -0.446 0.71 0.545
outer loop
vertex 0.222 0.079 0.189
vertex 0.444 0.13 0.304
vertex 0.222 0.137 0.114
endloop
endfacet
facet normal -0.456 0.694 0.556
outer loop
vertex 0.222 0.137 0.114
vertex 0.444 0.13 0.304
vertex 0.444 0.226 0.185
endloop
endfacet
facet normal -0.416 0.891 0.183
outer loop
vertex 0.222 0.137 0.114
vertex 0.444 0.226 0.185
vertex 0.222 0.158 0.011
endloop
endfacet
facet normal -0.421 0.887 0.19
outer loop
vertex 0.222 0.158 0.011
vertex 0.444 0.226 0.185
vertex 0.444 0.261 0.022
endloop
endfacet
facet normal -0.401 0.888 -0.223
outer loop
vertex 0.222 0.158 0.011
vertex 0.444 0.261 0.022
vertex 0.222 0.137 -0.073
endloop
endfacet
facet normal -0.397 0.888 -0.232
outer loop
vertex 0.222 0.137 -0.073
vertex 0.444 0.261 0.022
vertex 0.444 0.226 -0.112
endloop
endfacet
facet normal -0.381 0.675 -0.632
outer loop
vertex 0.222 0.137 -0.073
vertex 0.444 0.226 -0.112
vertex 0.222 0.079 -0.135
endloop
endfacet
facet normal -0.372 0.664 -0.649
outer loop
vertex 0.222 0.079 -0.135
vertex 0.444 0.226 -0.112
vertex 0.444 0.13 -0.21
endloop
endfacet
facet normal -0.361 0.257 -0.897
outer loop
vertex 0.222 0.079 -0.135
vertex 0.444 0.13 -0.21
vertex 0.222 0 -0.157
endloop
endfacet
facet normal -0.356 0.247 -0.901
outer loop
vertex 0.222 0 -0.157
vertex 0.444 0.13 -0.21
vertex 0.444 0 -0.245
endloop
endfacet
facet normal -0.355 -0.257 -0.899
outer loop
vertex 0.222 0 -0.157
vertex 0.444 0 -0.245
vertex 0.222 -0.079 -0.135
endloop
endfacet
facet normal -0.36 -0.247 -0.9
outer loop
vertex 0.222 -0.079 -0.135
vertex 0.444 0 -0.245
vertex 0.444 -0.13 -0.21
endloop
endfacet
facet normal -0.371 -0.678 -0.635
outer loop
vertex 0.222 -0.079 -0.135
vertex 0.444 -0.13 -0.21
vertex 0.222 -0.137 -0.073
endloop
endfacet
facet normal -0.378 -0.662 -0.647
outer loop
vertex 0.222 -0.137 -0.073
vertex 0.444 -0.13 -0.21
vertex 0.444 -0.226 -0.112
endloop
endfacet
facet normal -0.397 -0.89 -0.223
outer loop
vertex 0.222 -0.137 -0.073
vertex 0.444 -0.226 -0.112
vertex 0.222 -0.158 0.011
endloop
endfacet
facet normal -0.4 -0.887 -0.232
outer loop
vertex 0.222 -0.158 0.011
vertex 0.444 -0.226 -0.112
vertex 0.444 -0.261 0.022
endloop
endfacet
facet normal -0.421 -0.888 0.183
outer loop
vertex 0.222 -0.158 0.011
vertex 0.444 -0.261 0.022
vertex 0.222 -0.137 0.114
endloop
endfacet
facet normal -0.418 -0.888 0.191
outer loop
vertex 0.222 -0.137 0.114
vertex 0.444 -0.261 0.022
vertex 0.444 -0.226 0.185
endloop
endfacet
facet normal -0.456 -0.706 0.542
outer loop
vertex 0.222 -0.137 0.114
vertex 0.444 -0.226 0.185
vertex 0.222 -0.079 0.189
endloop
endfacet
facet normal -0.45 -0.697 0.558
outer loop
vertex 0.222 -0.079 0.189
vertex 0.444 -0.226 0.185
vertex 0.444 -0.13 0.304
endloop
endfacet
facet normal -0.491 -0.287 0.822
outer loop
vertex 0.222 -0.079 0.189
vertex 0.444 -0.13 0.304
vertex 0.222 0 0.217
endloop
endfacet
facet normal -0.488 -0.277 0.828
outer loop
vertex 0.222 0 0.217
vertex 0.444 -0.13 0.304
vertex 0.444 0 0.348
endloop
endfacet
facet normal -0.417 0.288 0.862
outer loop
vertex 0.444 0 0.348
vertex 0.667 0 0.455
vertex 0.444 0.13 0.304
endloop
endfacet
facet normal -0.421 0.282 0.862
outer loop
vertex 0.444 0.13 0.304
vertex 0.667 0 0.455
vertex 0.667 0.174 0.398
endloop
endfacet
facet normal -0.385 0.72 0.577
outer loop
vertex 0.444 0.13 0.304
vertex 0.667 0.174 0.398
vertex 0.444 0.226 0.185
endloop
endfacet
facet normal -0.393 0.711 0.583
outer loop
vertex 0.444 0.226 0.185
vertex 0.667 0.174 0.398
vertex 0.667 0.301 0.243
endloop
endfacet
facet normal -0.359 0.913 0.196
outer loop
vertex 0.444 0.226 0.185
vertex 0.667 0.301 0.243
vertex 0.444 0.261 0.022
endloop
endfacet
facet normal -0.363 0.91 0.2
outer loop
vertex 0.444 0.261 0.022
vertex 0.667 0.301 0.243
vertex 0.667 0.347 0.032
endloop
endfacet
facet normal -0.343 0.909 -0.238
outer loop
vertex 0.444 0.261 0.022
vertex 0.667 0.347 0.032
vertex 0.444 0.226 -0.112
endloop
endfacet
facet normal -0.339 0.909 -0.244
outer loop
vertex 0.444 0.226 -0.112
vertex 0.667 0.347 0.032
vertex 0.667 0.301 -0.142
endloop
endfacet
facet normal -0.318 0.678 -0.662
outer loop
vertex 0.444 0.226 -0.112
vertex 0.667 0.301 -0.142
vertex 0.444 0.13 -0.21
endloop
endfacet
facet normal -0.311 0.672 -0.672
outer loop
vertex 0.444 0.13 -0.21
vertex 0.667 0.301 -0.142
vertex 0.667 0.174 -0.269
endloop
endfacet
facet normal -0.296 0.253 -0.921
outer loop
vertex 0.444 0.13 -0.21
vertex 0.667 0.174 -0.269
vertex 0.444 0 -0.245
endloop
endfacet
facet normal -0.292 0.247 -0.924
outer loop
vertex 0.444 0 -0.245
vertex 0.667 0.174 -0.269
vertex 0.667 0 -0.316
endloop
endfacet
facet normal -0.291 -0.253 -0.923
outer loop
vertex 0.444 0 -0.245
vertex 0.667 0 -0.316
vertex 0.444 -0.13 -0.21
endloop
endfacet
facet normal -0.295 -0.247 -0.923
outer loop
vertex 0.444 -0.13 -0.21
vertex 0.667 0 -0.316
vertex 0.667 -0.174 -0.269
endloop
endfacet
facet normal -0.31 -0.68 -0.664
outer loop
vertex 0.444 -0.13 -0.21
vertex 0.667 -0.174 -0.269
vertex 0.444 -0.226 -0.112
endloop
endfacet
facet normal -0.317 -0.67 -0.671
outer loop
vertex 0.444 -0.226 -0.112
vertex 0.667 -0.174 -0.269
vertex 0.667 -0.301 -0.142
endloop
endfacet
facet normal -0.339 -0.91 -0.238
outer loop
vertex 0.444 -0.226 -0.112
vertex 0.667 -0.301 -0.142
vertex 0.444 -0.261 0.022
endloop
endfacet
facet normal -0.342 -0.908 -0.243
outer loop
vertex 0.444 -0.261 0.022
vertex 0.667 -0.301 -0.142
vertex 0.667 -0.347 0.032
endloop
endfacet
facet normal -0.363 -0.911 0.196
outer loop
vertex 0.444 -0.261 0.022
vertex 0.667 -0.347 0.032
vertex 0.444 -0.226 0.185
endloop
endfacet
facet normal -0.36 -0.911 0.2
outer loop
vertex 0.444 -0.226 0.185
vertex 0.667 -0.347 0.032
vertex 0.667 -0.301 0.243
endloop
endfacet
facet normal -0.393 -0.718 0.575
outer loop
vertex 0.444 -0.226 0.185
vertex 0.667 -0.301 0.243
vertex 0.444 -0.13 0.304
endloop
endfacet
facet normal -0.387 -0.713 0.585
outer loop
vertex 0.444 -0.13 0.304
vertex 0.667 -0.301 0.243
vertex 0.667 -0.174 0.398
endloop
endfacet
facet normal -0.421 -0.288 0.86
outer loop
vertex 0.444 -0.13 0.304
vertex 0.667 -0.174 0.398
vertex 0.444 0 0.348
endloop
endfacet
facet normal -0.418 -0.282 0.864
outer loop
vertex 0.444 0 0.348
vertex 0.667 -0.174 0.398
vertex 0.667 0 0.455
endloop
endfacet
facet normal -0.348 0.291 0.891
outer loop
vertex 0.667 0 0.455
vertex 0.889 0 0.542
vertex 0.667 0.174 0.398
endloop
endfacet
facet normal -0.351 0.287 0.891
outer loop
vertex 0.667 0.174 0.398
vertex 0.889 0 0.542
vertex 0.889 0.209 0.475
endloop
endfacet
facet normal -0.321 0.732 0.601
outer loop
vertex 0.667 0.174 0.398
vertex 0.889 0.209 0.475
vertex 0.667 0.301 0.243
endloop
endfacet
facet normal -0.328 0.726 0.604
outer loop
vertex 0.667 0.301 0.243
vertex 0.889 0.209 0.475
vertex 0.889 0.361 0.291
endloop
endfacet
facet normal -0.298 0.932 0.205
outer loop
vertex 0.667 0.301 0.243
vertex 0.889 0.361 0.291
vertex 0.667 0.347 0.032
endloop
endfacet
facet normal -0.301 0.931 0.207
outer loop
vertex 0.667 0.347 0.032
vertex 0.889 0.361 0.291
vertex 0.889 0.417 0.04
endloop
endfacet
facet normal -0.282 0.927 -0.248
outer loop
vertex 0.667 0.347 0.032
vertex 0.889 0.417 0.04
vertex 0.667 0.301 -0.142
endloop
endfacet
facet normal -0.279 0.927 -0.252
outer loop
vertex 0.667 0.301 -0.142
vertex 0.889 0.417 0.04
vertex 0.889 0.361 -0.165
endloop
endfacet
facet normal -0.258 0.683 -0.683
outer loop
vertex 0.667 0.301 -0.142
vertex 0.889 0.361 -0.165
vertex 0.667 0.174 -0.269
endloop
endfacet
facet normal -0.252 0.679 -0.689
outer loop
vertex 0.667 0.174 -0.269
vertex 0.889 0.361 -0.165
vertex 0.889 0.209 -0.316
endloop
endfacet
facet normal -0.237 0.251 -0.938
outer loop
vertex 0.667 0.174 -0.269
vertex 0.889 0.209 -0.316
vertex 0.667 0 -0.316
endloop
endfacet
facet normal -0.235 0.248 -0.94
outer loop
vertex 0.667 0 -0.316
vertex 0.889 0.209 -0.316
vertex 0.889 0 -0.371
endloop
endfacet
facet normal -0.234 -0.251 -0.939
outer loop
vertex 0.667 0 -0.316
vertex 0.889 0 -0.371
vertex 0.667 -0.174 -0.269
endloop
endfacet
facet normal -0.237 -0.248 -0.939
outer loop
vertex 0.667 -0.174 -0.269
vertex 0.889 0 -0.371
vertex 0.889 -0.209 -0.316
endloop
endfacet
facet normal -0.252 -0.684 -0.684
outer loop
vertex 0.667 -0.174 -0.269
vertex 0.889 -0.209 -0.316
vertex 0.667 -0.301 -0.142
endloop
endfacet
facet normal -0.257 -0.678 -0.688
outer loop
vertex 0.667 -0.301 -0.142
vertex 0.889 -0.209 -0.316
vertex 0.889 -0.361 -0.165
endloop
endfacet
facet normal -0.279 -0.928 -0.249
outer loop
vertex 0.667 -0.301 -0.142
vertex 0.889 -0.361 -0.165
vertex 0.667 -0.347 0.032
endloop
endfacet
facet normal -0.281 -0.926 -0.252
outer loop
vertex 0.667 -0.347 0.032
vertex 0.889 -0.361 -0.165
vertex 0.889 -0.417 0.04
endloop
endfacet
facet normal -0.301 -0.931 0.205
outer loop
vertex 0.667 -0.347 0.032
vertex 0.889 -0.417 0.04
vertex 0.667 -0.301 0.243
endloop
endfacet
facet normal -0.298 -0.932 0.208
outer loop
vertex 0.667 -0.301 0.243
vertex 0.889 -0.417 0.04
vertex 0.889 -0.361 0.291
endloop
endfacet
facet normal -0.328 -0.73 0.599
outer loop
vertex 0.667 -0.301 0.243
vertex 0.889 -0.361 0.291
vertex 0.667 -0.174 0.398
endloop
endfacet
facet normal -0.322 -0.728 0.605
outer loop
vertex 0.667 -0.174 0.398
vertex 0.889 -0.361 0.291
vertex 0.889 -0.209 0.475
endloop
endfacet
facet normal -0.351 -0.291 0.89
outer loop
vertex 0.667 -0.174 0.398
vertex 0.889 -0.209 0.475
vertex 0.667 0 0.455
endloop
endfacet
facet normal -0.349 -0.287 0.892
outer loop
vertex 0.667 0 0.455
vertex 0.889 -0.209 0.475
vertex 0.889 0 0.542
endloop
endfacet
facet normal -0.275 0.295 0.915
outer loop
vertex 0.889 0 0.542
vertex 1.111 0 0.609
vertex 0.889 0.209 0.475
endloop
endfacet
facet normal -0.277 0.293 0.915
outer loop
vertex 0.889 0.209 0.475
vertex 1.111 0 0.609
vertex 1.111 0.235 0.533
endloop
endfacet
facet normal -0.252 0.744 0.619
outer loop
vertex 0.889 0.209 0.475
vertex 1.111 0.235 0.533
vertex 0.889 0.361 0.291
endloop
endfacet
facet normal -0.256 0.741 0.621
outer loop
vertex 0.889 0.361 0.291
vertex 1.111 0.235 0.533
vertex 1.111 0.407 0.328
endloop
endfacet
facet normal -0.231 0.95 0.212
outer loop
vertex 0.889 0.361 0.291
vertex 1.111 0.407 0.328
vertex 0.889 0.417 0.04
endloop
endfacet
facet normal -0.233 0.949 0.213
outer loop
vertex 0.889 0.417 0.04
vertex 1.111 0.407 0.328
vertex 1.111 0.47 0.047
endloop
endfacet
facet normal -0.217 0.942 -0.256
outer loop
vertex 0.889 0.417 0.04
vertex 1.111 0.47 0.047
vertex 0.889 0.361 -0.165
endloop
endfacet
facet normal -0.215 0.942 -0.258
outer loop
vertex 0.889 0.361 -0.165
vertex 1.111 0.47 0.047
vertex 1.111 0.407 -0.183
endloop
endfacet
facet normal -0.197 0.688 -0.698
outer loop
vertex 0.889 0.361 -0.165
vertex 1.111 0.407 -0.183
vertex 0.889 0.209 -0.316
endloop
endfacet
facet normal -0.193 0.686 -0.701
outer loop
vertex 0.889 0.209 -0.316
vertex 1.111 0.407 -0.183
vertex 1.111 0.235 -0.351
endloop
endfacet
facet normal -0.181 0.251 -0.951
outer loop
vertex 0.889 0.209 -0.316
vertex 1.111 0.235 -0.351
vertex 0.889 0 -0.371
endloop
endfacet
facet normal -0.179 0.25 -0.952
outer loop
vertex 0.889 0 -0.371
vertex 1.111 0.235 -0.351
vertex 1.111 0 -0.413
endloop
endfacet
facet normal -0.179 -0.251 -0.951
outer loop
vertex 0.889 0 -0.371
vertex 1.111 0 -0.413
vertex 0.889 -0.209 -0.316
endloop
endfacet
facet normal -0.181 -0.249 -0.951
outer loop
vertex 0.889 -0.209 -0.316
vertex 1.111 0 -0.413
vertex 1.111 -0.235 -0.351
endloop
endfacet
facet normal -0.193 -0.689 -0.699
outer loop
vertex 0.889 -0.209 -0.316
vertex 1.111 -0.235 -0.351
vertex 0.889 -0.361 -0.165
endloop
endfacet
facet normal -0.197 -0.686 -0.701
outer loop
vertex 0.889 -0.361 -0.165
vertex 1.111 -0.235 -0.351
vertex 1.111 -0.407 -0.183
endloop
endfacet
facet normal -0.215 -0.942 -0.256
outer loop
vertex 0.889 -0.361 -0.165
vertex 1.111 -0.407 -0.183
vertex 0.889 -0.417 0.04
endloop
endfacet
facet normal -0.216 -0.942 -0.258
outer loop
vertex 0.889 -0.417 0.04
vertex 1.111 -0.407 -0.183
vertex 1.111 -0.47 0.047
endloop
endfacet
facet normal -0.233 -0.949 0.212
outer loop
vertex 0.889 -0.417 0.04
vertex 1.111 -0.47 0.047
vertex 0.889 -0.361 0.291
endloop
endfacet
facet normal -0.231 -0.949 0.213
outer loop
vertex 0.889 -0.361 0.291
vertex 1.111 -0.47 0.047
vertex 1.111 -0.407 0.328
endloop
endfacet
facet normal -0.256 -0.743 0.618
outer loop
vertex 0.889 -0.361 0.291
vertex 1.111 -0.407 0.328
vertex 0.889 -0.209 0.475
endloop
endfacet
facet normal -0.253 -0.742 0.621
outer loop
vertex 0.889 -0.209 0.475
vertex 1.111 -0.407 0.328
vertex 1.111 -0.235 0.533
endloop
endfacet
facet normal -0.277 -0.295 0.915
outer loop
vertex 0.889 -0.209 0.475
vertex 1.111 -0.235 0.533
vertex 0.889 0 0.542
endloop
endfacet
facet normal -0.275 -0.293 0.916
outer loop
vertex 0.889 0 0.542
vertex 1.111 -0.235 0.533
vertex 1.111 0 0.609
endloop
endfacet
facet normal -0.197 0.299 0.934
outer loop
vertex 1.111 0 0.609
vertex 1.333 0 0.656
vertex 1.111 0.235 0.533
endloop
endfacet
facet normal -0.198 0.298 0.934
outer loop
vertex 1.111 0.235 0.533
vertex 1.333 0 0.656
vertex 1.333 0.253 0.575
endloop
endfacet
facet normal -0.179 0.754 0.632
outer loop
vertex 1.111 0.235 0.533
vertex 1.333 0.253 0.575
vertex 1.111 0.407 0.328
endloop
endfacet
facet normal -0.18 0.753 0.632
outer loop
vertex 1.111 0.407 0.328
vertex 1.333 0.253 0.575
vertex 1.333 0.439 0.354
endloop
endfacet
facet normal -0.161 0.963 0.216
outer loop
vertex 1.111 0.407 0.328
vertex 1.333 0.439 0.354
vertex 1.111 0.47 0.047
endloop
endfacet
facet normal -0.162 0.963 0.217
outer loop
vertex 1.111 0.47 0.047
vertex 1.333 0.439 0.354
vertex 1.333 0.506 0.053
endloop
endfacet
facet normal -0.149 0.954 -0.261
outer loop
vertex 1.111 0.47 0.047
vertex 1.333 0.506 0.053
vertex 1.111 0.407 -0.183
endloop
endfacet
facet normal -0.148 0.954 -0.262
outer loop
vertex 1.111 0.407 -0.183
vertex 1.333 0.506 0.053
vertex 1.333 0.439 -0.195
endloop
endfacet
facet normal -0.135 0.693 -0.708
outer loop
vertex 1.111 0.407 -0.183
vertex 1.333 0.439 -0.195
vertex 1.111 0.235 -0.351
endloop
endfacet
facet normal -0.134 0.692 -0.709
outer loop
vertex 1.111 0.235 -0.351
vertex 1.333 0.439 -0.195
vertex 1.333 0.253 -0.376
endloop
endfacet
facet normal -0.126 0.252 -0.96
outer loop
vertex 1.111 0.235 -0.351
vertex 1.333 0.253 -0.376
vertex 1.111 0 -0.413
endloop
endfacet
facet normal -0.125 0.251 -0.96
outer loop
vertex 1.111 0 -0.413
vertex 1.333 0.253 -0.376
vertex 1.333 0 -0.442
endloop
endfacet
facet normal -0.125 -0.252 -0.96
outer loop
vertex 1.111 0 -0.413
vertex 1.333 0 -0.442
vertex 1.111 -0.235 -0.351
endloop
endfacet
facet normal -0.126 -0.251 -0.96
outer loop
vertex 1.111 -0.235 -0.351
vertex 1.333 0 -0.442
vertex 1.333 -0.253 -0.376
endloop
endfacet
facet normal -0.134 -0.693 -0.708
outer loop
vertex 1.111 -0.235 -0.351
vertex 1.333 -0.253 -0.376
vertex 1.111 -0.407 -0.183
endloop
endfacet
facet normal -0.135 -0.692 -0.709
outer loop
vertex 1.111 -0.407 -0.183
vertex 1.333 -0.253 -0.376
vertex 1.333 -0.439 -0.195
endloop
endfacet
facet normal -0.148 -0.954 -0.261
outer loop
vertex 1.111 -0.407 -0.183
vertex 1.333 -0.439 -0.195
vertex 1.111 -0.47 0.047
endloop
endfacet
facet normal -0.149 -0.954 -0.262
outer loop
vertex 1.111 -0.47 0.047
vertex 1.333 -0.439 -0.195
vertex 1.333 -0.506 0.053
endloop
endfacet
facet normal -0.162 -0.963 0.216
outer loop
vertex 1.111 -0.47 0.047
vertex 1.333 -0.506 0.053
vertex 1.111 -0.407 0.328
endloop
endfacet
facet normal -0.161 -0.963 0.217
outer loop
vertex 1.111 -0.407 0.328
vertex 1.333 -0.506 0.053
vertex 1.333 -0.439 0.354
endloop
endfacet
facet normal -0.18 -0.754 0.632
outer loop
vertex 1.111 -0.407 0.328
vertex 1.333 -0.439 0.354
vertex 1.111 -0.235 0.533
endloop
endfacet
facet normal -0.179 -0.753 0.633
outer loop
vertex 1.111 -0.235 0.533
vertex 1.333 -0.439 0.354
vertex 1.333 -0.253 0.575
endloop
endfacet
facet normal -0.198 -0.299 0.934
outer loop
vertex 1.111 -0.235 0.533
vertex 1.333 -0.253 0.575
vertex 1.111 0 0.609
endloop
endfacet
facet normal -0.198 -0.298 0.934
outer loop
vertex 1.111 0 0.609
vertex 1.333 -0.253 0.575
vertex 1.333 0 0.656
endloop
endfacet
facet normal -0.117 0.302 0.946
outer loop
vertex 1.333 0 0.656
vertex 1.556 0 0.683
vertex 1.333 0.253 0.575
endloop
endfacet
facet normal -0.116 0.302 0.946
outer loop
vertex 1.333 0.253 0.575
vertex 1.556 0 0.683
vertex 1.556 0.263 0.599
endloop
endfacet
facet normal -0.103 0.762 0.64
outer loop
vertex 1.333 0.253 0.575
vertex 1.556 0.263 0.599
vertex 1.333 0.439 0.354
endloop
endfacet
facet normal -0.102 0.762 0.639
outer loop
vertex 1.333 0.439 0.354
vertex 1.556 0.263 0.599
vertex 1.556 0.455 0.369
endloop
endfacet
facet normal -0.089 0.972 0.219
outer loop
vertex 1.333 0.439 0.354
vertex 1.556 0.455 0.369
vertex 1.333 0.506 0.053
endloop
endfacet
facet normal -0.088 0.972 0.218
outer loop
vertex 1.333 0.506 0.053
vertex 1.556 0.455 0.369
vertex 1.556 0.526 0.056
endloop
endfacet
facet normal -0.081 0.961 -0.264
outer loop
vertex 1.333 0.506 0.053
vertex 1.556 0.526 0.056
vertex 1.333 0.439 -0.195
endloop
endfacet
facet normal -0.081 0.961 -0.263
outer loop
vertex 1.333 0.439 -0.195
vertex 1.556 0.526 0.056
vertex 1.556 0.455 -0.202
endloop
endfacet
facet normal -0.075 0.697 -0.713
outer loop
vertex 1.333 0.439 -0.195
vertex 1.556 0.455 -0.202
vertex 1.333 0.253 -0.376
endloop
endfacet
facet normal -0.076 0.697 -0.713
outer loop
vertex 1.333 0.253 -0.376
vertex 1.556 0.455 -0.202
vertex 1.556 0.263 -0.39
endloop
endfacet
facet normal -0.073 0.252 -0.965
outer loop
vertex 1.333 0.253 -0.376
vertex 1.556 0.263 -0.39
vertex 1.333 0 -0.442
endloop
endfacet
facet normal -0.073 0.253 -0.965
outer loop
vertex 1.333 0 -0.442
vertex 1.556 0.263 -0.39
vertex 1.556 0 -0.459
endloop
endfacet
facet normal -0.073 -0.252 -0.965
outer loop
vertex 1.333 0 -0.442
vertex 1.556 0 -0.459
vertex 1.333 -0.253 -0.376
endloop
endfacet
facet normal -0.073 -0.253 -0.965
outer loop
vertex 1.333 -0.253 -0.376
vertex 1.556 0 -0.459
vertex 1.556 -0.263 -0.39
endloop
endfacet
facet normal -0.076 -0.697 -0.713
outer loop
vertex 1.333 -0.253 -0.376
vertex 1.556 -0.263 -0.39
vertex 1.333 -0.439 -0.195
endloop
endfacet
facet normal -0.075 -0.697 -0.713
outer loop
vertex 1.333 -0.439 -0.195
vertex 1.556 -0.263 -0.39
vertex 1.556 -0.455 -0.202
endloop
endfacet
facet normal -0.081 -0.961 -0.264
outer loop
vertex 1.333 -0.439 -0.195
vertex 1.556 -0.455 -0.202
vertex 1.333 -0.506 0.053
endloop
endfacet
facet normal -0.081 -0.961 -0.263
outer loop
vertex 1.333 -0.506 0.053
vertex 1.556 -0.455 -0.202
vertex 1.556 -0.526 0.056
endloop
endfacet
facet normal -0.088 -0.972 0.219
outer loop
vertex 1.333 -0.506 0.053
vertex 1.556 -0.526 0.056
vertex 1.333 -0.439 0.354
endloop
endfacet
facet normal -0.089 -0.972 0.218
outer loop
vertex 1.333 -0.439 0.354
vertex 1.556 -0.526 0.056
vertex 1.556 -0.455 0.369
endloop
endfacet
facet normal -0.102 -0.762 0.64
outer loop
vertex 1.333 -0.439 0.354
vertex 1.556 -0.455 0.369
vertex 1.333 -0.253 0.575
endloop
endfacet
facet normal -0.103 -0.762 0.639
outer loop
vertex 1.333 -0.253 0.575
vertex 1.556 -0.455 0.369
vertex 1.556 -0.263 0.599
endloop
endfacet
facet normal -0.116 -0.302 0.946
outer loop
vertex 1.333 -0.253 0.575
vertex 1.556 -0.263 0.599
vertex 1.333 0 0.656
endloop
endfacet
facet normal -0.117 -0.302 0.946
outer loop
vertex 1.333 0 0.656
vertex 1.556 -0.263 0.599
vertex 1.556 0 0.683
endloop
endfacet
facet normal -0.036 0.304 0.952
outer loop
vertex 1.556 0 0.683
vertex 1.778 0 0.692
vertex 1.556 0.263 0.599
endloop
endfacet
facet normal -0.034 0.306 0.951
outer loop
vertex 1.556 0.263 0.599
vertex 1.778 0 0.692
vertex 1.778 0.265 0.606
endloop
endfacet
facet normal -0.027 0.766 0.642
outer loop
vertex 1.556 0.263 0.599
vertex 1.778 0.265 0.606
vertex 1.556 0.455 0.369
endloop
endfacet
facet normal -0.024 0.768 0.64
outer loop
vertex 1.556 0.455 0.369
vertex 1.778 0.265 0.606
vertex 1.778 0.459 0.374
endloop
endfacet
facet normal -0.018 0.976 0.219
outer loop
vertex 1.556 0.455 0.369
vertex 1.778 0.459 0.374
vertex 1.556 0.526 0.056
endloop
endfacet
facet normal -0.017 0.976 0.218
outer loop
vertex 1.556 0.526 0.056
vertex 1.778 0.459 0.374
vertex 1.778 0.529 0.057
endloop
endfacet
facet normal -0.015 0.964 -0.264
outer loop
vertex 1.556 0.526 0.056
vertex 1.778 0.529 0.057
vertex 1.556 0.455 -0.202
endloop
endfacet
facet normal -0.016 0.965 -0.263
outer loop
vertex 1.556 0.455 -0.202
vertex 1.778 0.529 0.057
vertex 1.778 0.459 -0.204
endloop
endfacet
facet normal -0.017 0.699 -0.715
outer loop
vertex 1.556 0.455 -0.202
vertex 1.778 0.459 -0.204
vertex 1.556 0.263 -0.39
endloop
endfacet
facet normal -0.02 0.701 -0.713
outer loop
vertex 1.556 0.263 -0.39
vertex 1.778 0.459 -0.204
vertex 1.778 0.265 -0.394
endloop
endfacet
facet normal -0.022 0.254 -0.967
outer loop
vertex 1.556 0.263 -0.39
vertex 1.778 0.265 -0.394
vertex 1.556 0 -0.459
endloop
endfacet
facet normal -0.023 0.255 -0.967
outer loop
vertex 1.556 0 -0.459
vertex 1.778 0.265 -0.394
vertex 1.778 0 -0.464
endloop
endfacet
facet normal -0.023 -0.254 -0.967
outer loop
vertex 1.556 0 -0.459
vertex 1.778 0 -0.464
vertex 1.556 -0.263 -0.39
endloop
endfacet
facet normal -0.022 -0.255 -0.967
outer loop
vertex 1.556 -0.263 -0.39
vertex 1.778 0 -0.464
vertex 1.778 -0.265 -0.394
endloop
endfacet
facet normal -0.02 -0.699 -0.715
outer loop
vertex 1.556 -0.263 -0.39
vertex 1.778 -0.265 -0.394
vertex 1.556 -0.455 -0.202
endloop
endfacet
facet normal -0.017 -0.701 -0.713
outer loop
vertex 1.556 -0.455 -0.202
vertex 1.778 -0.265 -0.394
vertex 1.778 -0.459 -0.204
endloop
endfacet
facet normal -0.016 -0.964 -0.264
outer loop
vertex 1.556 -0.455 -0.202
vertex 1.778 -0.459 -0.204
vertex 1.556 -0.526 0.056
endloop
endfacet
facet normal -0.015 -0.965 -0.263
outer loop
vertex 1.556 -0.526 0.056
vertex 1.778 -0.459 -0.204
vertex 1.778 -0.529 0.057
endloop
endfacet
facet normal -0.017 -0.976 0.219
outer loop
vertex 1.556 -0.526 0.056
vertex 1.778 -0.529 0.057
vertex 1.556 -0.455 0.369
endloop
endfacet
facet normal -0.018 -0.976 0.218
outer loop
vertex 1.556 -0.455 0.369
vertex 1.778 -0.529 0.057
vertex 1.778 -0.459 0.374
endloop
endfacet
facet normal -0.024 -0.766 0.642
outer loop
vertex 1.556 -0.455 0.369
vertex 1.778 -0.459 0.374
vertex 1.556 -0.263 0.599
endloop
endfacet
facet normal -0.027 -0.768 0.64
outer loop
vertex 1.556 -0.263 0.599
vertex 1.778 -0.459 0.374
vertex 1.778 -0.265 0.606
endloop
endfacet
facet normal -0.034 -0.304 0.952
outer loop
vertex 1.556 -0.263 0.599
vertex 1.778 -0.265 0.606
vertex 1.556 0 0.683
endloop
endfacet
facet normal -0.036 -0.306 0.951
outer loop
vertex 1.556 0 0.683
vertex 1.778 -0.265 0.606
vertex 1.778 0 0.692
endloop
endfacet
facet normal 0.043 0.306 0.951
outer loop
vertex 1.778 0 0.692
vertex 2 0 0.682
vertex 1.778 0.265 0.606
endloop
endfacet
facet normal 0.046 0.308 0.95
outer loop
vertex 1.778 0.265 0.606
vertex 2 0 0.682
vertex 2 0.259 0.598
endloop
endfacet
facet normal 0.045 0.767 0.64
outer loop
vertex 1.778 0.265 0.606
vertex 2 0.259 0.598
vertex 1.778 0.459 0.374
endloop
endfacet
facet normal 0.051 0.77 0.636
outer loop
vertex 1.778 0.459 0.374
vertex 2 0.259 0.598
vertex 2 0.449 0.368
endloop
endfacet
facet normal 0.049 0.975 0.218
outer loop
vertex 1.778 0.459 0.374
vertex 2 0.449 0.368
vertex 1.778 0.529 0.057
endloop
endfacet
facet normal 0.051 0.975 0.216
outer loop
vertex 1.778 0.529 0.057
vertex 2 0.449 0.368
vertex 2 0.518 0.055
endloop
endfacet
facet normal 0.047 0.964 -0.263
outer loop
vertex 1.778 0.529 0.057
vertex 2 0.518 0.055
vertex 1.778 0.459 -0.204
endloop
endfacet
facet normal 0.045 0.964 -0.261
outer loop
vertex 1.778 0.459 -0.204
vertex 2 0.518 0.055
vertex 2 0.449 -0.202
endloop
endfacet
facet normal 0.037 0.701 -0.712
outer loop
vertex 1.778 0.459 -0.204
vertex 2 0.449 -0.202
vertex 1.778 0.265 -0.394
endloop
endfacet
facet normal 0.032 0.704 -0.71
outer loop
vertex 1.778 0.265 -0.394
vertex 2 0.449 -0.202
vertex 2 0.259 -0.39
endloop
endfacet
facet normal 0.026 0.255 -0.967
outer loop
vertex 1.778 0.265 -0.394
vertex 2 0.259 -0.39
vertex 1.778 0 -0.464
endloop
endfacet
facet normal 0.023 0.257 -0.966
outer loop
vertex 1.778 0 -0.464
vertex 2 0.259 -0.39
vertex 2 0 -0.459
endloop
endfacet
facet normal 0.023 -0.255 -0.967
outer loop
vertex 1.778 0 -0.464
vertex 2 0 -0.459
vertex 1.778 -0.265 -0.394
endloop
endfacet
facet normal 0.026 -0.257 -0.966
outer loop
vertex 1.778 -0.265 -0.394
vertex 2 0 -0.459
vertex 2 -0.259 -0.39
endloop
endfacet
facet normal 0.032 -0.701 -0.713
outer loop
vertex 1.778 -0.265 -0.394
vertex 2 -0.259 -0.39
vertex 1.778 -0.459 -0.204
endloop
endfacet
facet normal 0.037 -0.704 -0.71
outer loop
vertex 1.778 -0.459 -0.204
vertex 2 -0.259 -0.39
vertex 2 -0.449 -0.202
endloop
endfacet
facet normal 0.045 -0.964 -0.263
outer loop
vertex 1.778 -0.459 -0.204
vertex 2 -0.449 -0.202
vertex 1.778 -0.529 0.057
endloop
endfacet
facet normal 0.048 -0.964 -0.261
outer loop
vertex 1.778 -0.529 0.057
vertex 2 -0.449 -0.202
vertex 2 -0.518 0.055
endloop
endfacet
facet normal 0.051 -0.975 0.218
outer loop
vertex 1.778 -0.529 0.057
vertex 2 -0.518 0.055
vertex 1.778 -0.459 0.374
endloop
endfacet
facet normal 0.049 -0.975 0.216
outer loop
vertex 1.778 -0.459 0.374
vertex 2 -0.518 0.055
vertex 2 -0.449 0.368
endloop
endfacet
facet normal 0.051 -0.767 0.64
outer loop
vertex 1.778 -0.459 0.374
vertex 2 -0.449 0.368
vertex 1.778 -0.265 0.606
endloop
endfacet
facet normal 0.045 -0.77 0.637
outer loop
vertex 1.778 -0.265 0.606
vertex 2 -0.449 0.368
vertex 2 -0.259 0.598
endloop
endfacet
facet normal 0.046 -0.306 0.951
outer loop
vertex 1.778 -0.265 0.606
vertex 2 -0.259 0.598
vertex 1.778 0 0.692
endloop
endfacet
facet normal 0.043 -0.308 0.95
outer loop
vertex 1.778 0 0.692
vertex 2 -0.259 0.598
vertex 2 0 0.682
endloop
endfacet
facet normal 0.116 0.306 0.945
outer loop
vertex 2 0 0.682
vertex 2.222 0 0.654
vertex 2 0.259 0.598
endloop
endfacet
facet normal 0.12 0.309 0.943
outer loop
vertex 2 0.259 0.598
vertex 2.222 0 0.654
vertex 2.222 0.247 0.573
endloop
endfacet
facet normal 0.112 0.766 0.633
outer loop
vertex 2 0.259 0.598
vertex 2.222 0.247 0.573
vertex 2 0.449 0.368
endloop
endfacet
facet normal 0.119 0.769 0.628
outer loop
vertex 2 0.449 0.368
vertex 2.222 0.247 0.573
vertex 2.222 0.427 0.353
endloop
endfacet
facet normal 0.11 0.97 0.215
outer loop
vertex 2 0.449 0.368
vertex 2.222 0.427 0.353
vertex 2 0.518 0.055
endloop
endfacet
facet normal 0.113 0.971 0.213
outer loop
vertex 2 0.518 0.055
vertex 2.222 0.427 0.353
vertex 2.222 0.493 0.051
endloop
endfacet
facet normal 0.103 0.96 -0.259
outer loop
vertex 2 0.518 0.055
vertex 2.222 0.493 0.051
vertex 2 0.449 -0.202
endloop
endfacet
facet normal 0.1 0.961 -0.257
outer loop
vertex 2 0.449 -0.202
vertex 2.222 0.493 0.051
vertex 2.222 0.427 -0.196
endloop
endfacet
facet normal 0.086 0.702 -0.707
outer loop
vertex 2 0.449 -0.202
vertex 2.222 0.427 -0.196
vertex 2 0.259 -0.39
endloop
endfacet
facet normal 0.08 0.706 -0.704
outer loop
vertex 2 0.259 -0.39
vertex 2.222 0.427 -0.196
vertex 2.222 0.247 -0.377
endloop
endfacet
facet normal 0.069 0.256 -0.964
outer loop
vertex 2 0.259 -0.39
vertex 2.222 0.247 -0.377
vertex 2 0 -0.459
endloop
endfacet
facet normal 0.066 0.259 -0.964
outer loop
vertex 2 0 -0.459
vertex 2.222 0.247 -0.377
vertex 2.222 0 -0.444
endloop
endfacet
facet normal 0.066 -0.256 -0.964
outer loop
vertex 2 0 -0.459
vertex 2.222 0 -0.444
vertex 2 -0.259 -0.39
endloop
endfacet
facet normal 0.069 -0.259 -0.963
outer loop
vertex 2 -0.259 -0.39
vertex 2.222 0 -0.444
vertex 2.222 -0.247 -0.377
endloop
endfacet
facet normal 0.08 -0.702 -0.708
outer loop
vertex 2 -0.259 -0.39
vertex 2.222 -0.247 -0.377
vertex 2 -0.449 -0.202
endloop
endfacet
facet normal 0.087 -0.706 -0.703
outer loop
vertex 2 -0.449 -0.202
vertex 2.222 -0.247 -0.377
vertex 2.222 -0.427 -0.196
endloop
endfacet
facet normal 0.1 -0.961 -0.26
outer loop
vertex 2 -0.449 -0.202
vertex 2.222 -0.427 -0.196
vertex 2 -0.518 0.055
endloop
endfacet
facet normal 0.104 -0.961 -0.257
outer loop
vertex 2 -0.518 0.055
vertex 2.222 -0.427 -0.196
vertex 2.222 -0.493 0.051
endloop
endfacet
facet normal 0.113 -0.97 0.215
outer loop
vertex 2 -0.518 0.055
vertex 2.222 -0.493 0.051
vertex 2 -0.449 0.368
endloop
endfacet
facet normal 0.11 -0.971 0.213
outer loop
vertex 2 -0.449 0.368
vertex 2.222 -0.493 0.051
vertex 2.222 -0.427 0.353
endloop
endfacet
facet normal 0.119 -0.765 0.633
outer loop
vertex 2 -0.449 0.368
vertex 2.222 -0.427 0.353
vertex 2 -0.259 0.598
endloop
endfacet
facet normal 0.112 -0.769 0.629
outer loop
vertex 2 -0.259 0.598
vertex 2.222 -0.427 0.353
vertex 2.222 -0.247 0.573
endloop
endfacet
facet normal 0.12 -0.306 0.944
outer loop
vertex 2 -0.259 0.598
vertex 2.222 -0.247 0.573
vertex 2 0 0.682
endloop
endfacet
facet normal 0.116 -0.309 0.944
outer loop
vertex 2 0 0.682
vertex 2.222 -0.247 0.573
vertex 2.222 0 0.654
endloop
endfacet
facet normal 0.183 0.306 0.934
outer loop
vertex 2.222 0 0.654
vertex 2.444 0 0.611
vertex 2.222 0.247 0.573
endloop
endfacet
facet normal 0.188 0.31 0.932
outer loop
vertex 2.222 0.247 0.573
vertex 2.444 0 0.611
vertex 2.444 0.228 0.535
endloop
endfacet
facet normal 0.172 0.763 0.623
outer loop
vertex 2.222 0.247 0.573
vertex 2.444 0.228 0.535
vertex 2.222 0.427 0.353
endloop
endfacet
facet normal 0.18 0.766 0.617
outer loop
vertex 2.222 0.427 0.353
vertex 2.444 0.228 0.535
vertex 2.444 0.395 0.328
endloop
endfacet
facet normal 0.163 0.964 0.211
outer loop
vertex 2.222 0.427 0.353
vertex 2.444 0.395 0.328
vertex 2.222 0.493 0.051
endloop
endfacet
facet normal 0.167 0.964 0.208
outer loop
vertex 2.222 0.493 0.051
vertex 2.444 0.395 0.328
vertex 2.444 0.456 0.045
endloop
endfacet
facet normal 0.152 0.955 -0.255
outer loop
vertex 2.222 0.493 0.051
vertex 2.444 0.456 0.045
vertex 2.222 0.427 -0.196
endloop
endfacet
facet normal 0.148 0.956 -0.252
outer loop
vertex 2.222 0.427 -0.196
vertex 2.444 0.456 0.045
vertex 2.444 0.395 -0.187
endloop
endfacet
facet normal 0.13 0.702 -0.7
outer loop
vertex 2.222 0.427 -0.196
vertex 2.444 0.395 -0.187
vertex 2.222 0.247 -0.377
endloop
endfacet
facet normal 0.122 0.708 -0.696
outer loop
vertex 2.222 0.247 -0.377
vertex 2.444 0.395 -0.187
vertex 2.444 0.228 -0.357
endloop
endfacet
facet normal 0.108 0.258 -0.96
outer loop
vertex 2.222 0.247 -0.377
vertex 2.444 0.228 -0.357
vertex 2.222 0 -0.444
endloop
endfacet
facet normal 0.104 0.262 -0.96
outer loop
vertex 2.222 0 -0.444
vertex 2.444 0.228 -0.357
vertex 2.444 0 -0.42
endloop
endfacet
facet normal 0.104 -0.258 -0.96
outer loop
vertex 2.222 0 -0.444
vertex 2.444 0 -0.42
vertex 2.222 -0.247 -0.377
endloop
endfacet
facet normal 0.108 -0.262 -0.959
outer loop
vertex 2.222 -0.247 -0.377
vertex 2.444 0 -0.42
vertex 2.444 -0.228 -0.357
endloop
endfacet
facet normal 0.122 -0.703 -0.701
outer loop
vertex 2.222 -0.247 -0.377
vertex 2.444 -0.228 -0.357
vertex 2.222 -0.427 -0.196
endloop
endfacet
facet normal 0.13 -0.707 -0.695
outer loop
vertex 2.222 -0.427 -0.196
vertex 2.444 -0.228 -0.357
vertex 2.444 -0.395 -0.187
endloop
endfacet
facet normal 0.148 -0.955 -0.255
outer loop
vertex 2.222 -0.427 -0.196
vertex 2.444 -0.395 -0.187
vertex 2.222 -0.493 0.051
endloop
endfacet
facet normal 0.153 -0.956 -0.252
outer loop
vertex 2.222 -0.493 0.051
vertex 2.444 -0.395 -0.187
vertex 2.444 -0.456 0.045
endloop
endfacet
facet normal 0.167 -0.963 0.211
outer loop
vertex 2.222 -0.493 0.051
vertex 2.444 -0.456 0.045
vertex 2.222 -0.427 0.353
endloop
endfacet
facet normal 0.163 -0.964 0.208
outer loop
vertex 2.222 -0.427 0.353
vertex 2.444 -0.456 0.045
vertex 2.444 -0.395 0.328
endloop
endfacet
facet normal 0.18 -0.762 0.623
outer loop
vertex 2.222 -0.427 0.353
vertex 2.444 -0.395 0.328
vertex 2.222 -0.247 0.573
endloop
endfacet
facet normal 0.171 -0.767 0.618
outer loop
vertex 2.222 -0.247 0.573
vertex 2.444 -0.395 0.328
vertex 2.444 -0.228 0.535
endloop
endfacet
facet normal 0.188 -0.306 0.933
outer loop
vertex 2.222 -0.247 0.573
vertex 2.444 -0.228 0.535
vertex 2.222 0 0.654
endloop
endfacet
facet normal 0.183 -0.31 0.933
outer loop
vertex 2.222 0 0.654
vertex 2.444 -0.228 0.535
vertex 2.444 0 0.611
endloop
endfacet
facet normal 0.242 0.306 0.921
outer loop
vertex 2.444 0 0.611
vertex 2.667 0 0.552
vertex 2.444 0.228 0.535
endloop
endfacet
facet normal 0.247 0.311 0.918
outer loop
vertex 2.444 0.228 0.535
vertex 2.667 0 0.552
vertex 2.667 0.204 0.483
endloop
endfacet
facet normal 0.223 0.759 0.611
outer loop
vertex 2.444 0.228 0.535
vertex 2.667 0.204 0.483
vertex 2.444 0.395 0.328
endloop
endfacet
facet normal 0.232 0.763 0.603
outer loop
vertex 2.444 0.395 0.328
vertex 2.667 0.204 0.483
vertex 2.667 0.354 0.294
endloop
endfacet
facet normal 0.208 0.956 0.206
outer loop
vertex 2.444 0.395 0.328
vertex 2.667 0.354 0.294
vertex 2.444 0.456 0.045
endloop
endfacet
facet normal 0.212 0.956 0.203
outer loop
vertex 2.444 0.456 0.045
vertex 2.667 0.354 0.294
vertex 2.667 0.408 0.036
endloop
endfacet
facet normal 0.193 0.949 -0.25
outer loop
vertex 2.444 0.456 0.045
vertex 2.667 0.408 0.036
vertex 2.444 0.395 -0.187
endloop
endfacet
facet normal 0.189 0.951 -0.246
outer loop
vertex 2.444 0.395 -0.187
vertex 2.667 0.408 0.036
vertex 2.667 0.354 -0.176
endloop
endfacet
facet normal 0.167 0.703 -0.691
outer loop
vertex 2.444 0.395 -0.187
vertex 2.667 0.354 -0.176
vertex 2.444 0.228 -0.357
endloop
endfacet
facet normal 0.158 0.711 -0.685
outer loop
vertex 2.444 0.228 -0.357
vertex 2.667 0.354 -0.176
vertex 2.667 0.204 -0.331
endloop
endfacet
facet normal 0.142 0.261 -0.955
outer loop
vertex 2.444 0.228 -0.357
vertex 2.667 0.204 -0.331
vertex 2.444 0 -0.42
endloop
endfacet
facet normal 0.138 0.265 -0.954
outer loop
vertex 2.444 0 -0.42
vertex 2.667 0.204 -0.331
vertex 2.667 0 -0.388
endloop
endfacet
facet normal 0.138 -0.261 -0.956
outer loop
vertex 2.444 0 -0.42
vertex 2.667 0 -0.388
vertex 2.444 -0.228 -0.357
endloop
endfacet
facet normal 0.142 -0.265 -0.954
outer loop
vertex 2.444 -0.228 -0.357
vertex 2.667 0 -0.388
vertex 2.667 -0.204 -0.331
endloop
endfacet
facet normal 0.158 -0.704 -0.692
outer loop
vertex 2.444 -0.228 -0.357
vertex 2.667 -0.204 -0.331
vertex 2.444 -0.395 -0.187
endloop
endfacet
facet normal 0.167 -0.71 -0.684
outer loop
vertex 2.444 -0.395 -0.187
vertex 2.667 -0.204 -0.331
vertex 2.667 -0.354 -0.176
endloop
endfacet
facet normal 0.189 -0.95 -0.25
outer loop
vertex 2.444 -0.395 -0.187
vertex 2.667 -0.354 -0.176
vertex 2.444 -0.456 0.045
endloop
endfacet
facet normal 0.193 -0.95 -0.245
outer loop
vertex 2.444 -0.456 0.045
vertex 2.667 -0.354 -0.176
vertex 2.667 -0.408 0.036
endloop
endfacet
facet normal 0.212 -0.955 0.206
outer loop
vertex 2.444 -0.456 0.045
vertex 2.667 -0.408 0.036
vertex 2.444 -0.395 0.328
endloop
endfacet
facet normal 0.208 -0.957 0.203
outer loop
vertex 2.444 -0.395 0.328
vertex 2.667 -0.408 0.036
vertex 2.667 -0.354 0.294
endloop
endfacet
facet normal 0.232 -0.758 0.61
outer loop
vertex 2.444 -0.395 0.328
vertex 2.667 -0.354 0.294
vertex 2.444 -0.228 0.535
endloop
endfacet
facet normal 0.222 -0.765 0.605
outer loop
vertex 2.444 -0.228 0.535
vertex 2.667 -0.354 0.294
vertex 2.667 -0.204 0.483
endloop
endfacet
facet normal 0.246 -0.306 0.92
outer loop
vertex 2.444 -0.228 0.535
vertex 2.667 -0.204 0.483
vertex 2.444 0 0.611
endloop
endfacet
facet normal 0.241 -0.311 0.919
outer loop
vertex 2.444 0 0.611
vertex 2.667 -0.204 0.483
vertex 2.667 0 0.552
endloop
endfacet
facet normal 0.291 0.307 0.906
outer loop
vertex 2.667 0 0.552
vertex 2.889 0 0.481
vertex 2.667 0.204 0.483
endloop
endfacet
facet normal 0.296 0.313 0.902
outer loop
vertex 2.667 0.204 0.483
vertex 2.889 0 0.481
vertex 2.889 0.176 0.42
endloop
endfacet
facet normal 0.265 0.756 0.598
outer loop
vertex 2.667 0.204 0.483
vertex 2.889 0.176 0.42
vertex 2.667 0.354 0.294
endloop
endfacet
facet normal 0.275 0.761 0.588
outer loop
vertex 2.667 0.354 0.294
vertex 2.889 0.176 0.42
vertex 2.889 0.305 0.253
endloop
endfacet
facet normal 0.244 0.949 0.201
outer loop
vertex 2.667 0.354 0.294
vertex 2.889 0.305 0.253
vertex 2.667 0.408 0.036
endloop
endfacet
facet normal 0.248 0.949 0.197
outer loop
vertex 2.667 0.408 0.036
vertex 2.889 0.305 0.253
vertex 2.889 0.352 0.025
endloop
endfacet
facet normal 0.226 0.943 -0.244
outer loop
vertex 2.667 0.408 0.036
vertex 2.889 0.352 0.025
vertex 2.667 0.354 -0.176
endloop
endfacet
facet normal 0.221 0.946 -0.239
outer loop
vertex 2.667 0.354 -0.176
vertex 2.889 0.352 0.025
vertex 2.889 0.305 -0.162
endloop
endfacet
facet normal 0.197 0.706 -0.681
outer loop
vertex 2.667 0.354 -0.176
vertex 2.889 0.305 -0.162
vertex 2.667 0.204 -0.331
endloop
endfacet
facet normal 0.188 0.715 -0.674
outer loop
vertex 2.667 0.204 -0.331
vertex 2.889 0.305 -0.162
vertex 2.889 0.176 -0.298
endloop
endfacet
facet normal 0.171 0.264 -0.949
outer loop
vertex 2.667 0.204 -0.331
vertex 2.889 0.176 -0.298
vertex 2.667 0 -0.388
endloop
endfacet
facet normal 0.166 0.269 -0.949
outer loop
vertex 2.667 0 -0.388
vertex 2.889 0.176 -0.298
vertex 2.889 0 -0.349
endloop
endfacet
facet normal 0.166 -0.264 -0.95
outer loop
vertex 2.667 0 -0.388
vertex 2.889 0 -0.349
vertex 2.667 -0.204 -0.331
endloop
endfacet
facet normal 0.172 -0.269 -0.948
outer loop
vertex 2.667 -0.204 -0.331
vertex 2.889 0 -0.349
vertex 2.889 -0.176 -0.298
endloop
endfacet
facet normal 0.188 -0.707 -0.682
outer loop
vertex 2.667 -0.204 -0.331
vertex 2.889 -0.176 -0.298
vertex 2.667 -0.354 -0.176
endloop
endfacet
facet normal 0.198 -0.713 -0.673
outer loop
vertex 2.667 -0.354 -0.176
vertex 2.889 -0.176 -0.298
vertex 2.889 -0.305 -0.162
endloop
endfacet
facet normal 0.221 -0.944 -0.244
outer loop
vertex 2.667 -0.354 -0.176
vertex 2.889 -0.305 -0.162
vertex 2.667 -0.408 0.036
endloop
endfacet
facet normal 0.226 -0.944 -0.239
outer loop
vertex 2.667 -0.408 0.036
vertex 2.889 -0.305 -0.162
vertex 2.889 -0.352 0.025
endloop
endfacet
facet normal 0.248 -0.948 0.201
outer loop
vertex 2.667 -0.408 0.036
vertex 2.889 -0.352 0.025
vertex 2.667 -0.354 0.294
endloop
endfacet
facet normal 0.243 -0.95 0.197
outer loop
vertex 2.667 -0.354 0.294
vertex 2.889 -0.352 0.025
vertex 2.889 -0.305 0.253
endloop
endfacet
facet normal 0.275 -0.754 0.596
outer loop
vertex 2.667 -0.354 0.294
vertex 2.889 -0.305 0.253
vertex 2.667 -0.204 0.483
endloop
endfacet
facet normal 0.264 -0.763 0.59
outer loop
vertex 2.667 -0.204 0.483
vertex 2.889 -0.305 0.253
vertex 2.889 -0.176 0.42
endloop
endfacet
facet normal 0.296 -0.306 0.905
outer loop
vertex 2.667 -0.204 0.483
vertex 2.889 -0.176 0.42
vertex 2.667 0 0.552
endloop
endfacet
facet normal 0.291 -0.313 0.904
outer loop
vertex 2.667 0 0.552
vertex 2.889 -0.176 0.42
vertex 2.889 0 0.481
endloop
endfacet
facet normal 0.332 0.309 0.891
outer loop
vertex 2.889 0 0.481
vertex 3.111 0 0.398
vertex 2.889 0.176 0.42
endloop
endfacet
facet normal 0.337 0.316 0.887
outer loop
vertex 2.889 0.176 0.42
vertex 3.111 0 0.398
vertex 3.111 0.145 0.347
endloop
endfacet
facet normal 0.298 0.755 0.584
outer loop
vertex 2.889 0.176 0.42
vertex 3.111 0.145 0.347
vertex 2.889 0.305 0.253
endloop
endfacet
facet normal 0.307 0.76 0.572
outer loop
vertex 2.889 0.305 0.253
vertex 3.111 0.145 0.347
vertex 3.111 0.251 0.205
endloop
endfacet
facet normal 0.271 0.943 0.195
outer loop
vertex 2.889 0.305 0.253
vertex 3.111 0.251 0.205
vertex 2.889 0.352 0.025
endloop
endfacet
facet normal 0.275 0.943 0.19
outer loop
vertex 2.889 0.352 0.025
vertex 3.111 0.251 0.205
vertex 3.111 0.29 0.013
endloop
endfacet
facet normal 0.25 0.939 -0.237
outer loop
vertex 2.889 0.352 0.025
vertex 3.111 0.29 0.013
vertex 2.889 0.305 -0.162
endloop
endfacet
facet normal 0.245 0.941 -0.231
outer loop
vertex 2.889 0.305 -0.162
vertex 3.111 0.29 0.013
vertex 3.111 0.251 -0.146
endloop
endfacet
facet normal 0.221 0.71 -0.669
outer loop
vertex 2.889 0.305 -0.162
vertex 3.111 0.251 -0.146
vertex 2.889 0.176 -0.298
endloop
endfacet
facet normal 0.211 0.72 -0.661
outer loop
vertex 2.889 0.176 -0.298
vertex 3.111 0.251 -0.146
vertex 3.111 0.145 -0.261
endloop
endfacet
facet normal 0.195 0.268 -0.943
outer loop
vertex 2.889 0.176 -0.298
vertex 3.111 0.145 -0.261
vertex 2.889 0 -0.349
endloop
endfacet
facet normal 0.19 0.275 -0.942
outer loop
vertex 2.889 0 -0.349
vertex 3.111 0.145 -0.261
vertex 3.111 0 -0.304
endloop
endfacet
facet normal 0.191 -0.268 -0.944
outer loop
vertex 2.889 0 -0.349
vertex 3.111 0 -0.304
vertex 2.889 -0.176 -0.298
endloop
endfacet
facet normal 0.196 -0.275 -0.941
outer loop
vertex 2.889 -0.176 -0.298
vertex 3.111 0 -0.304
vertex 3.111 -0.145 -0.261
endloop
endfacet
facet normal 0.212 -0.711 -0.671
outer loop
vertex 2.889 -0.176 -0.298
vertex 3.111 -0.145 -0.261
vertex 2.889 -0.305 -0.162
endloop
endfacet
facet normal 0.222 -0.718 -0.659
outer loop
vertex 2.889 -0.305 -0.162
vertex 3.111 -0.145 -0.261
vertex 3.111 -0.251 -0.146
endloop
endfacet
facet normal 0.245 -0.94 -0.238
outer loop
vertex 2.889 -0.305 -0.162
vertex 3.111 -0.251 -0.146
vertex 2.889 -0.352 0.025
endloop
endfacet
facet normal 0.25 -0.94 -0.231
outer loop
vertex 2.889 -0.352 0.025
vertex 3.111 -0.251 -0.146
vertex 3.111 -0.29 0.013
endloop
endfacet
facet normal 0.275 -0.941 0.195
outer loop
vertex 2.889 -0.352 0.025
vertex 3.111 -0.29 0.013
vertex 2.889 -0.305 0.253
endloop
endfacet
facet normal 0.27 -0.944 0.19
outer loop
vertex 2.889 -0.305 0.253
vertex 3.111 -0.29 0.013
vertex 3.111 -0.251 0.205
endloop
endfacet
facet normal 0.308 -0.753 0.582
outer loop
vertex 2.889 -0.305 0.253
vertex 3.111 -0.251 0.205
vertex 2.889 -0.176 0.42
endloop
endfacet
facet normal 0.296 -0.763 0.574
outer loop
vertex 2.889 -0.176 0.42
vertex 3.111 -0.251 0.205
vertex 3.111 -0.145 0.347
endloop
endfacet
facet normal 0.337 -0.308 0.89
outer loop
vertex 2.889 -0.176 0.42
vertex 3.111 -0.145 0.347
vertex 2.889 0 0.481
endloop
endfacet
facet normal 0.331 -0.317 0.889
outer loop
vertex 2.889 0 0.481
vertex 3.111 -0.145 0.347
vertex 3.111 0 0.398
endloop
endfacet
facet normal 0.364 0.312 0.877
outer loop
vertex 3.111 0 0.398
vertex 3.333 0 0.306
vertex 3.111 0.145 0.347
endloop
endfacet
facet normal 0.369 0.321 0.872
outer loop
vertex 3.111 0.145 0.347
vertex 3.333 0 0.306
vertex 3.333 0.112 0.265
endloop
endfacet
facet normal 0.322 0.756 0.569
outer loop
vertex 3.111 0.145 0.347
vertex 3.333 0.112 0.265
vertex 3.111 0.251 0.205
endloop
endfacet
facet normal 0.33 0.763 0.555
outer loop
vertex 3.111 0.251 0.205
vertex 3.333 0.112 0.265
vertex 3.333 0.194 0.152
endloop
endfacet
facet normal 0.288 0.939 0.189
outer loop
vertex 3.111 0.251 0.205
vertex 3.333 0.194 0.152
vertex 3.111 0.29 0.013
endloop
endfacet
facet normal 0.292 0.939 0.183
outer loop
vertex 3.111 0.29 0.013
vertex 3.333 0.194 0.152
vertex 3.333 0.224 -0.002
endloop
endfacet
facet normal 0.265 0.936 -0.23
outer loop
vertex 3.111 0.29 0.013
vertex 3.333 0.224 -0.002
vertex 3.111 0.251 -0.146
endloop
endfacet
facet normal 0.261 0.939 -0.223
outer loop
vertex 3.111 0.251 -0.146
vertex 3.333 0.224 -0.002
vertex 3.333 0.194 -0.128
endloop
endfacet
facet normal 0.238 0.716 -0.657
outer loop
vertex 3.111 0.251 -0.146
vertex 3.333 0.194 -0.128
vertex 3.111 0.145 -0.261
endloop
endfacet
facet normal 0.229 0.728 -0.646
outer loop
vertex 3.111 0.145 -0.261
vertex 3.333 0.194 -0.128
vertex 3.333 0.112 -0.22
endloop
endfacet
facet normal 0.215 0.274 -0.938
outer loop
vertex 3.111 0.145 -0.261
vertex 3.333 0.112 -0.22
vertex 3.111 0 -0.304
endloop
endfacet
facet normal 0.21 0.283 -0.936
outer loop
vertex 3.111 0 -0.304
vertex 3.333 0.112 -0.22
vertex 3.333 0 -0.254
endloop
endfacet
facet normal 0.21 -0.274 -0.938
outer loop
vertex 3.111 0 -0.304
vertex 3.333 0 -0.254
vertex 3.111 -0.145 -0.261
endloop
endfacet
facet normal 0.216 -0.282 -0.935
outer loop
vertex 3.111 -0.145 -0.261
vertex 3.333 0 -0.254
vertex 3.333 -0.112 -0.22
endloop
endfacet
facet normal 0.229 -0.717 -0.658
outer loop
vertex 3.111 -0.145 -0.261
vertex 3.333 -0.112 -0.22
vertex 3.111 -0.251 -0.146
endloop
endfacet
facet normal 0.239 -0.726 -0.644
outer loop
vertex 3.111 -0.251 -0.146
vertex 3.333 -0.112 -0.22
vertex 3.333 -0.194 -0.128
endloop
endfacet
facet normal 0.261 -0.937 -0.231
outer loop
vertex 3.111 -0.251 -0.146
vertex 3.333 -0.194 -0.128
vertex 3.111 -0.29 0.013
endloop
endfacet
facet normal 0.266 -0.938 -0.223
outer loop
vertex 3.111 -0.29 0.013
vertex 3.333 -0.194 -0.128
vertex 3.333 -0.224 -0.002
endloop
endfacet
facet normal 0.292 -0.938 0.189
outer loop
vertex 3.111 -0.29 0.013
vertex 3.333 -0.224 -0.002
vertex 3.111 -0.251 0.205
endloop
endfacet
facet normal 0.287 -0.94 0.183
outer loop
vertex 3.111 -0.251 0.205
vertex 3.333 -0.224 -0.002
vertex 3.333 -0.194 0.152
endloop
endfacet
facet normal 0.331 -0.754 0.567
outer loop
vertex 3.111 -0.251 0.205
vertex 3.333 -0.194 0.152
vertex 3.111 -0.145 0.347
endloop
endfacet
facet normal 0.32 -0.766 0.558
outer loop
vertex 3.111 -0.145 0.347
vertex 3.333 -0.194 0.152
vertex 3.333 -0.112 0.265
endloop
endfacet
facet normal 0.369 -0.312 0.876
outer loop
vertex 3.111 -0.145 0.347
vertex 3.333 -0.112 0.265
vertex 3.111 0 0.398
endloop
endfacet
facet normal 0.363 -0.322 0.874
outer loop
vertex 3.111 0 0.398
vertex 3.333 -0.112 0.265
vertex 3.333 0 0.306
endloop
endfacet
facet normal 0.389 0.318 0.865
outer loop
vertex 3.333 0 0.306
vertex 3.556 0 0.206
vertex 3.333 0.112 0.265
endloop
endfacet
facet normal 0.393 0.329 0.859
outer loop
vertex 3.333 0.112 0.265
vertex 3.556 0 0.206
vertex 3.556 0.078 0.176
endloop
endfacet
facet normal 0.337 0.761 0.554
outer loop
vertex 3.333 0.112 0.265
vertex 3.556 0.078 0.176
vertex 3.333 0.194 0.152
endloop
endfacet
facet normal 0.344 0.77 0.538
outer loop
vertex 3.333 0.194 0.152
vertex 3.556 0.078 0.176
vertex 3.556 0.135 0.094
endloop
endfacet
facet normal 0.296 0.938 0.183
outer loop
vertex 3.333 0.194 0.152
vertex 3.556 0.135 0.094
vertex 3.333 0.224 -0.002
endloop
endfacet
facet normal 0.299 0.938 0.176
outer loop
vertex 3.333 0.224 -0.002
vertex 3.556 0.135 0.094
vertex 3.556 0.156 -0.017
endloop
endfacet
facet normal 0.271 0.936 -0.223
outer loop
vertex 3.333 0.224 -0.002
vertex 3.556 0.156 -0.017
vertex 3.333 0.194 -0.128
endloop
endfacet
facet normal 0.268 0.939 -0.214
outer loop
vertex 3.333 0.194 -0.128
vertex 3.556 0.156 -0.017
vertex 3.556 0.135 -0.109
endloop
endfacet
facet normal 0.248 0.725 -0.643
outer loop
vertex 3.333 0.194 -0.128
vertex 3.556 0.135 -0.109
vertex 3.333 0.112 -0.22
endloop
endfacet
facet normal 0.24 0.739 -0.63
outer loop
vertex 3.333 0.112 -0.22
vertex 3.556 0.135 -0.109
vertex 3.556 0.078 -0.175
endloop
endfacet
facet normal 0.23 0.281 -0.932
outer loop
vertex 3.333 0.112 -0.22
vertex 3.556 0.078 -0.175
vertex 3.333 0 -0.254
endloop
endfacet
facet normal 0.226 0.292 -0.929
outer loop
vertex 3.333 0 -0.254
vertex 3.556 0.078 -0.175
vertex 3.556 0 -0.2
endloop
endfacet
facet normal 0.226 -0.282 -0.932
outer loop
vertex 3.333 0 -0.254
vertex 3.556 0 -0.2
vertex 3.333 -0.112 -0.22
endloop
endfacet
facet normal 0.231 -0.292 -0.928
outer loop
vertex 3.333 -0.112 -0.22
vertex 3.556 0 -0.2
vertex 3.556 -0.078 -0.175
endloop
endfacet
facet normal 0.241 -0.726 -0.644
outer loop
vertex 3.333 -0.112 -0.22
vertex 3.556 -0.078 -0.175
vertex 3.333 -0.194 -0.128
endloop
endfacet
facet normal 0.25 -0.737 -0.628
outer loop
vertex 3.333 -0.194 -0.128
vertex 3.556 -0.078 -0.175
vertex 3.556 -0.135 -0.109
endloop
endfacet
facet normal 0.268 -0.937 -0.223
outer loop
vertex 3.333 -0.194 -0.128
vertex 3.556 -0.135 -0.109
vertex 3.333 -0.224 -0.002
endloop
endfacet
facet normal 0.272 -0.938 -0.214
outer loop
vertex 3.333 -0.224 -0.002
vertex 3.556 -0.135 -0.109
vertex 3.556 -0.156 -0.017
endloop
endfacet
facet normal 0.299 -0.936 0.183
outer loop
vertex 3.333 -0.224 -0.002
vertex 3.556 -0.156 -0.017
vertex 3.333 -0.194 0.152
endloop
endfacet
facet normal 0.295 -0.939 0.176
outer loop
vertex 3.333 -0.194 0.152
vertex 3.556 -0.156 -0.017
vertex 3.556 -0.135 0.094
endloop
endfacet
facet normal 0.345 -0.759 0.552
outer loop
vertex 3.333 -0.194 0.152
vertex 3.556 -0.135 0.094
vertex 3.333 -0.112 0.265
endloop
endfacet
facet normal 0.334 -0.773 0.54
outer loop
vertex 3.333 -0.112 0.265
vertex 3.556 -0.135 0.094
vertex 3.556 -0.078 0.176
endloop
endfacet
facet normal 0.393 -0.318 0.863
outer loop
vertex 3.333 -0.112 0.265
vertex 3.556 -0.078 0.176
vertex 3.333 0 0.306
endloop
endfacet
facet normal 0.387 -0.33 0.861
outer loop
vertex 3.333 0 0.306
vertex 3.556 -0.078 0.176
vertex 3.556 0 0.206
endloop
endfacet
facet normal 0.408 0.327 0.852
outer loop
vertex 3.556 0 0.206
vertex 3.778 0 0.1
vertex 3.556 0.078 0.176
endloop
endfacet
facet normal 0.41 0.339 0.847
outer loop
vertex 3.556 0.078 0.176
vertex 3.778 0 0.1
vertex 3.778 0.045 0.082
endloop
endfacet
facet normal 0.344 0.77 0.538
outer loop
vertex 3.556 0.078 0.176
vertex 3.778 0.045 0.082
vertex 3.556 0.135 0.094
endloop
endfacet
facet normal 0.347 0.779 0.522
outer loop
vertex 3.556 0.135 0.094
vertex 3.778 0.045 0.082
vertex 3.778 0.077 0.033
endloop
endfacet
facet normal 0.293 0.94 0.176
outer loop
vertex 3.556 0.135 0.094
vertex 3.778 0.077 0.033
vertex 3.556 0.156 -0.017
endloop
endfacet
facet normal 0.295 0.941 0.169
outer loop
vertex 3.556 0.156 -0.017
vertex 3.778 0.077 0.033
vertex 3.778 0.089 -0.033
endloop
endfacet
facet normal 0.267 0.94 -0.214
outer loop
vertex 3.556 0.156 -0.017
vertex 3.778 0.089 -0.033
vertex 3.556 0.135 -0.109
endloop
endfacet
facet normal 0.264 0.942 -0.206
outer loop
vertex 3.556 0.135 -0.109
vertex 3.778 0.089 -0.033
vertex 3.778 0.077 -0.088
endloop
endfacet
facet normal 0.25 0.737 -0.628
outer loop
vertex 3.556 0.135 -0.109
vertex 3.778 0.077 -0.088
vertex 3.556 0.078 -0.175
endloop
endfacet
facet normal 0.245 0.751 -0.613
outer loop
vertex 3.556 0.078 -0.175
vertex 3.778 0.077 -0.088
vertex 3.778 0.045 -0.128
endloop
endfacet
facet normal 0.242 0.291 -0.925
outer loop
vertex 3.556 0.078 -0.175
vertex 3.778 0.045 -0.128
vertex 3.556 0 -0.2
endloop
endfacet
facet normal 0.239 0.303 -0.923
outer loop
vertex 3.556 0 -0.2
vertex 3.778 0.045 -0.128
vertex 3.778 0 -0.142
endloop
endfacet
facet normal 0.24 -0.291 -0.926
outer loop
vertex 3.556 0 -0.2
vertex 3.778 0 -0.142
vertex 3.556 -0.078 -0.175
endloop
endfacet
facet normal 0.243 -0.302 -0.922
outer loop
vertex 3.556 -0.078 -0.175
vertex 3.778 0 -0.142
vertex 3.778 -0.045 -0.128
endloop
endfacet
facet normal 0.246 -0.738 -0.629
outer loop
vertex 3.556 -0.078 -0.175
vertex 3.778 -0.045 -0.128
vertex 3.556 -0.135 -0.109
endloop
endfacet
facet normal 0.252 -0.75 -0.612
outer loop
vertex 3.556 -0.135 -0.109
vertex 3.778 -0.045 -0.128
vertex 3.778 -0.077 -0.088
endloop
endfacet
facet normal 0.265 -0.94 -0.215
outer loop
vertex 3.556 -0.135 -0.109
vertex 3.778 -0.077 -0.088
vertex 3.556 -0.156 -0.017
endloop
endfacet
facet normal 0.268 -0.941 -0.206
outer loop
vertex 3.556 -0.156 -0.017
vertex 3.778 -0.077 -0.088
vertex 3.778 -0.089 -0.033
endloop
endfacet
facet normal 0.295 -0.939 0.176
outer loop
vertex 3.556 -0.156 -0.017
vertex 3.778 -0.089 -0.033
vertex 3.556 -0.135 0.094
endloop
endfacet
facet normal 0.292 -0.942 0.169
outer loop
vertex 3.556 -0.135 0.094
vertex 3.778 -0.089 -0.033
vertex 3.778 -0.077 0.033
endloop
endfacet
facet normal 0.348 -0.769 0.537
outer loop
vertex 3.556 -0.135 0.094
vertex 3.778 -0.077 0.033
vertex 3.556 -0.078 0.176
endloop
endfacet
facet normal 0.339 -0.782 0.523
outer loop
vertex 3.556 -0.078 0.176
vertex 3.778 -0.077 0.033
vertex 3.778 -0.045 0.082
endloop
endfacet
facet normal 0.41 -0.327 0.851
outer loop
vertex 3.556 -0.078 0.176
vertex 3.778 -0.045 0.082
vertex 3.556 0 0.206
endloop
endfacet
facet normal 0.406 -0.34 0.848
outer loop
vertex 3.556 0 0.206
vertex 3.778 -0.045 0.082
vertex 3.778 0 0.1
endloop
endfacet
facet normal 0.432 0.335 0.837
outer loop
vertex 3.778 0 0.1
vertex 4 0 -0.015
vertex 3.778 0.045 0.082
endloop
endfacet
facet normal 0.43 0.269 0.862
outer loop
vertex 3.778 0.045 0.082
vertex 4 0 -0.015
vertex 4 0.015 -0.02
endloop
endfacet
facet normal 0.342 0.781 0.523
outer loop
vertex 3.778 0.045 0.082
vertex 4 0.015 -0.02
vertex 3.778 0.077 0.033
endloop
endfacet
facet normal 0.344 0.713 0.611
outer loop
vertex 3.778 0.077 0.033
vertex 4 0.015 -0.02
vertex 4 0.026 -0.032
endloop
endfacet
facet normal 0.268 0.948 0.17
outer loop
vertex 3.778 0.077 0.033
vertex 4 0.026 -0.032
vertex 3.778 0.089 -0.033
endloop
endfacet
facet normal 0.266 0.94 0.216
outer loop
vertex 3.778 0.089 -0.033
vertex 4 0.026 -0.032
vertex 4 0.03 -0.05
endloop
endfacet
facet normal 0.237 0.949 -0.208
outer loop
vertex 3.778 0.089 -0.033
vertex 4 0.03 -0.05
vertex 3.778 0.077 -0.088
endloop
endfacet
facet normal 0.243 0.934 -0.262
outer loop
vertex 3.778 0.077 -0.088
vertex 4 0.03 -0.05
vertex 4 0.026 -0.064
endloop
endfacet
facet normal 0.238 0.752 -0.614
outer loop
vertex 3.778 0.077 -0.088
vertex 4 0.026 -0.064
vertex 3.778 0.045 -0.128
endloop
endfacet
facet normal 0.255 0.668 -0.699
outer loop
vertex 3.778 0.045 -0.128
vertex 4 0.026 -0.064
vertex 4 0.015 -0.075
endloop
endfacet
facet normal 0.259 0.301 -0.918
outer loop
vertex 3.778 0.045 -0.128
vertex 4 0.015 -0.075
vertex 3.778 0 -0.142
endloop
endfacet
facet normal 0.267 0.239 -0.933
outer loop
vertex 3.778 0 -0.142
vertex 4 0.015 -0.075
vertex 4 0 -0.079
endloop
endfacet
facet normal 0.263 -0.301 -0.917
outer loop
vertex 3.778 0 -0.142
vertex 4 0 -0.079
vertex 3.778 -0.045 -0.128
endloop
endfacet
facet normal 0.255 -0.24 -0.937
outer loop
vertex 3.778 -0.045 -0.128
vertex 4 0 -0.079
vertex 4 -0.015 -0.075
endloop
endfacet
facet normal 0.246 -0.751 -0.613
outer loop
vertex 3.778 -0.045 -0.128
vertex 4 -0.015 -0.075
vertex 3.778 -0.077 -0.088
endloop
endfacet
facet normal 0.229 -0.673 -0.703
outer loop
vertex 3.778 -0.077 -0.088
vertex 4 -0.015 -0.075
vertex 4 -0.026 -0.064
endloop
endfacet
facet normal 0.24 -0.948 -0.207
outer loop
vertex 3.778 -0.077 -0.088
vertex 4 -0.026 -0.064
vertex 3.778 -0.089 -0.033
endloop
endfacet
facet normal 0.229 -0.937 -0.263
outer loop
vertex 3.778 -0.089 -0.033
vertex 4 -0.026 -0.064
vertex 4 -0.03 -0.05
endloop
endfacet
facet normal 0.265 -0.949 0.17
outer loop
vertex 3.778 -0.089 -0.033
vertex 4 -0.03 -0.05
vertex 3.778 -0.077 0.033
endloop
endfacet
facet normal 0.279 -0.936 0.215
outer loop
vertex 3.778 -0.077 0.033
vertex 4 -0.03 -0.05
vertex 4 -0.026 -0.032
endloop
endfacet
facet normal 0.335 -0.783 0.524
outer loop
vertex 3.778 -0.077 0.033
vertex 4 -0.026 -0.032
vertex 3.778 -0.045 0.082
endloop
endfacet
facet normal 0.37 -0.705 0.605
outer loop
vertex 3.778 -0.045 0.082
vertex 4 -0.026 -0.032
vertex 4 -0.015 -0.02
endloop
endfacet
facet normal 0.428 -0.336 0.839
outer loop
vertex 3.778 -0.045 0.082
vertex 4 -0.015 -0.02
vertex 3.778 0 0.1
endloop
endfacet
facet normal 0.442 -0.268 0.856
outer loop
vertex 3.778 0 0.1
vertex 4 -0.015 -0.02
vertex 4 0 -0.015
endloop
endfacet
facet normal 0.308 -0.284 -0.908
outer loop
vertex -0.28 0 -0.06
vertex 0 0.015 0.03
vertex 0 0 0.035
endloop
endfacet
facet normal 0.243 -0.736 -0.631
outer loop
vertex -0.28 0 -0.06
vertex 0 0.026 0.018
vertex 0 0.015 0.03
endloop
endfacet
facet normal 0.151 -0.964 -0.221
outer loop
vertex -0.28 0 -0.06
vertex 0 0.03 0
vertex 0 0.026 0.018
endloop
endfacet
facet normal 0.045 -0.962 0.269
outer loop
vertex -0.28 0 -0.06
vertex 0 0.026 -0.014
vertex 0 0.03 0
endloop
endfacet
facet normal -0.054 -0.69 0.722
outer loop
vertex -0.28 0 -0.06
vertex 0 0.015 -0.025
vertex 0 0.026 -0.014
endloop
endfacet
facet normal -0.108 -0.247 0.963
outer loop
vertex -0.28 0 -0.06
vertex 0 0 -0.029
vertex 0 0.015 -0.025
endloop
endfacet
facet normal -0.108 0.247 0.963
outer loop
vertex -0.28 0 -0.06
vertex 0 -0.015 -0.025
vertex 0 0 -0.029
endloop
endfacet
facet normal -0.054 0.69 0.722
outer loop
vertex -0.28 0 -0.06
vertex 0 -0.026 -0.014
vertex 0 -0.015 -0.025
endloop
endfacet
facet normal 0.045 0.962 0.269
outer loop
vertex -0.28 0 -0.06
vertex 0 -0.03 -0
vertex 0 -0.026 -0.014
endloop
endfacet
facet normal 0.151 0.964 -0.221
outer loop
vertex -0.28 0 -0.06
vertex 0 -0.026 0.018
vertex 0 -0.03 -0
endloop
endfacet
facet normal 0.243 0.736 -0.631
outer loop
vertex -0.28 0 -0.06
vertex 0 -0.015 0.03
vertex 0 -0.026 0.018
endloop
endfacet
facet normal 0.308 0.284 -0.908
outer loop
vertex -0.28 0 -0.06
vertex 0 0 0.035
vertex 0 -0.015 0.03
endloop
endfacet
facet normal -1 0 0
outer loop
vertex 4 0 -0.048
vertex 4 0 -0.015
vertex 4 0.015 -0.02
endloop
endfacet
facet normal -1 0 0
outer loop
vertex 4 0 -0.048
vertex 4 0.015 -0.02
vertex 4 0.026 -0.032
endloop
endfacet
facet normal -1 0 0
outer loop
vertex 4 0 -0.048
vertex 4 0.026 -0.032
vertex 4 0.03 -0.05
endloop
endfacet
facet normal -1 0 0
outer loop
vertex 4 0 -0.048
vertex 4 0.03 -0.05
vertex 4 0.026 -0.064
endloop
endfacet
facet normal -1 0 0
outer loop
vertex 4 0 -0.048
vertex 4 0.026 -0.064
vertex 4 0.015 -0.075
endloop
endfacet
facet normal -1 0 0
outer loop
vertex 4 0 -0.048
vertex 4 0.015 -0.075
vertex 4 0 -0.079
endloop
endfacet
facet normal -1 0 0
outer loop
vertex 4 0 -0.048
vertex 4 0 -0.079
vertex 4 -0.015 -0.075
endloop
endfacet
facet normal -1 0 0
outer loop
vertex 4 0 -0.048
vertex 4 -0.015 -0.075
vertex 4 -0.026 -0.064
endloop
endfacet
facet normal -1 0 0
outer loop
vertex 4 0 -0.048
vertex 4 -0.026 -0.064
vertex 4 -0.03 -0.05
endloop
endfacet
facet normal -1 0 0
outer loop
vertex 4 0 -0.048
vertex 4 -0.03 -0.05
vertex 4 -0.026 -0.032
endloop
endfacet
facet normal -1 0 0
outer loop
vertex 4 0 -0.048
vertex 4 -0.026 -0.032
vertex 4 -0.015 -0.02
endloop
endfacet
facet normal -1 0 0
outer loop
vertex 4 0 -0.048
vertex 4 -0.015 -0.02
vertex 4 0 -0.015
endloop
endfacet
facet normal 0 -1 0
outer loop
vertex 1.25 0.015 0.62
vertex 1.95 0.015 0.55
vertex 1.55 0.015 1.22
endloop
endfacet
facet normal 0 1 0
outer loop
vertex 1.25 -0.015 0.62
vertex 1.55 -0.015 1.22
vertex 1.95 -0.015 0.55
endloop
endfacet
facet normal 0.1 0 0.995
outer loop
vertex 1.25 0.015 0.62
vertex 1.25 -0.015 0.62
vertex 1.95 0.015 0.55
endloop
endfacet
facet normal 0.1 0 0.995
outer loop
vertex 1.95 0.015 0.55
vertex 1.25 -0.015 0.62
vertex 1.95 -0.015 0.55
endloop
endfacet
facet normal -0.859 0 -0.513
outer loop
vertex 1.95 0.015 0.55
vertex 1.95 -0.015 0.55
vertex 1.55 0.015 1.22
endloop
endfacet
facet normal -0.859 0 -0.513
outer loop
vertex 1.55 0.015 1.22
vertex 1.95 -0.015 0.55
vertex 1.55 -0.015 1.22
endloop
endfacet
facet normal 0.894 0 -0.447
outer loop
vertex 1.55 0.015 1.22
vertex 1.55 -0.015 1.22
vertex 1.25 0.015 0.62
endloop
endfacet
facet normal 0.894 0 -0.447
outer loop
vertex 1.25 0.015 0.62
vertex 1.55 -0.015 1.22
vertex 1.25 -0.015 0.62
endloop
endfacet
facet normal 0 -1 0
outer loop
vertex 3.05 0.015 0.18
vertex 3.25 0.015 0.16
vertex 3.18 0.015 0.32
endloop
endfacet
facet normal 0 1 0
outer loop
vertex 3.05 -0.015 0.18
vertex 3.18 -0.015 0.32
vertex 3.25 -0.015 0.16
endloop
endfacet
facet normal 0.1 0 0.995
outer loop
vertex 3.05 0.015 0.18
vertex 3.05 -0.015 0.18
vertex 3.25 0.015 0.16
endloop
endfacet
facet normal 0.1 0 0.995
outer loop
vertex 3.25 0.015 0.16
vertex 3.05 -0.015 0.18
vertex 3.25 -0.015 0.16
endloop
endfacet
facet normal -0.916 0 -0.401
outer loop
vertex 3.25 0.015 0.16
vertex 3.25 -0.015 0.16
vertex 3.18 0.015 0.32
endloop
endfacet
facet normal -0.916 0 -0.401
outer loop
vertex 3.18 0.015 0.32
vertex 3.25 -0.015 0.16
vertex 3.18 -0.015 0.32
endloop
endfacet
facet normal 0.733 0 -0.68
outer loop
vertex 3.18 0.015 0.32
vertex 3.18 -0.015 0.32
vertex 3.05 0.015 0.18
endloop
endfacet
facet normal 0.733 0 -0.68
outer loop
vertex 3.05 0.015 0.18
vertex 3.18 -0.015 0.32
vertex 3.05 -0.015 0.18
endloop
endfacet
facet normal 0.145 0.351 0.925
outer loop
vertex 1.02 0.38 -0.325
vertex 1.45 0.36 -0.385
vertex 1.72 1.25 -0.765
endloop
endfacet
facet normal -0.145 -0.351 -0.925
outer loop
vertex 1.02 0.38 -0.355
vertex 1.72 1.25 -0.795
vertex 1.45 0.36 -0.415
endloop
endfacet
facet normal -0.046 -0.999 0
outer loop
vertex 1.02 0.38 -0.325
vertex 1.02 0.38 -0.355
vertex 1.45 0.36 -0.385
endloop
endfacet
facet normal -0.046 -0.999 0
outer loop
vertex 1.45 0.36 -0.385
vertex 1.02 0.38 -0.355
vertex 1.45 0.36 -0.415
endloop
endfacet
facet normal 0.957 -0.29 0
outer loop
vertex 1.45 0.36 -0.385
vertex 1.45 0.36 -0.415
vertex 1.72 1.25 -0.765
endloop
endfacet
facet normal 0.957 -0.29 0
outer loop
vertex 1.72 1.25 -0.765
vertex 1.45 0.36 -0.415
vertex 1.72 1.25 -0.795
endloop
endfacet
facet normal -0.779 0.627 0
outer loop
vertex 1.72 1.25 -0.765
vertex 1.72 1.25 -0.795
vertex 1.02 0.38 -0.325
endloop
endfacet
facet normal -0.779 0.627 0
outer loop
vertex 1.02 0.38 -0.325
vertex 1.72 1.25 -0.795
vertex 1.02 0.38 -0.355
endloop
endfacet
facet normal -0.145 0.351 -0.925
outer loop
vertex 1.02 -0.38 -0.325
vertex 1.45 -0.36 -0.385
vertex 1.72 -1.25 -0.765
endloop
endfacet
facet normal 0.145 -0.351 0.925
outer loop
vertex 1.02 -0.38 -0.355
vertex 1.72 -1.25 -0.795
vertex 1.45 -0.36 -0.415
endloop
endfacet
facet normal 0.046 -0.999 0
outer loop
vertex 1.02 -0.38 -0.325
vertex 1.02 -0.38 -0.355
vertex 1.45 -0.36 -0.385
endloop
endfacet
facet normal 0.046 -0.999 0
outer loop
vertex 1.45 -0.36 -0.385
vertex 1.02 -0.38 -0.355
vertex 1.45 -0.36 -0.415
endloop
endfacet
facet normal -0.957 -0.29 0
outer loop
vertex 1.45 -0.36 -0.385
vertex 1.45 -0.36 -0.415
vertex 1.72 -1.25 -0.765
endloop
endfacet
facet normal -0.957 -0.29 0
outer loop
vertex 1.72 -1.25 -0.765
vertex 1.45 -0.36 -0.415
vertex 1.72 -1.25 -0.795
endloop
endfacet
facet normal 0.779 0.627 0
outer loop
vertex 1.72 -1.25 -0.765
vertex 1.72 -1.25 -0.795
vertex 1.02 -0.38 -0.325
endloop
endfacet
facet normal 0.779 0.627 0
outer loop
vertex 1.02 -0.38 -0.325
vertex 1.72 -1.25 -0.795
vertex 1.02 -0.38 -0.355
endloop
endfacet
facet normal -0.081 0.623 0.778
outer loop
vertex 2.55 0.18 -0.285
vertex 2.78 0.16 -0.245
vertex 2.86 0.42 -0.445
endloop
endfacet
facet normal 0.081 -0.623 -0.778
outer loop
vertex 2.55 0.18 -0.315
vertex 2.86 0.42 -0.475
vertex 2.78 0.16 -0.275
endloop
endfacet
facet normal -0.087 -0.996 0
outer loop
vertex 2.55 0.18 -0.285
vertex 2.55 0.18 -0.315
vertex 2.78 0.16 -0.245
endloop
endfacet
facet normal -0.087 -0.996 0
outer loop
vertex 2.78 0.16 -0.245
vertex 2.55 0.18 -0.315
vertex 2.78 0.16 -0.275
endloop
endfacet
facet normal 0.956 -0.294 0
outer loop
vertex 2.78 0.16 -0.245
vertex 2.78 0.16 -0.275
vertex 2.86 0.42 -0.445
endloop
endfacet
facet normal 0.956 -0.294 0
outer loop
vertex 2.86 0.42 -0.445
vertex 2.78 0.16 -0.275
vertex 2.86 0.42 -0.475
endloop
endfacet
facet normal -0.612 0.791 0
outer loop
vertex 2.86 0.42 -0.445
vertex 2.86 0.42 -0.475
vertex 2.55 0.18 -0.285
endloop
endfacet
facet normal -0.612 0.791 0
outer loop
vertex 2.55 0.18 -0.285
vertex 2.86 0.42 -0.475
vertex 2.55 0.18 -0.315
endloop
endfacet
facet normal 0.081 0.623 -0.778
outer loop
vertex 2.55 -0.18 -0.285
vertex 2.78 -0.16 -0.245
vertex 2.86 -0.42 -0.445
endloop
endfacet
facet normal -0.081 -0.623 0.778
outer loop
vertex 2.55 -0.18 -0.315
vertex 2.86 -0.42 -0.475
vertex 2.78 -0.16 -0.275
endloop
endfacet
facet normal 0.087 -0.996 0
outer loop
vertex 2.55 -0.18 -0.285
vertex 2.55 -0.18 -0.315
vertex 2.78 -0.16 -0.245
endloop
endfacet
facet normal 0.087 -0.996 0
outer loop
vertex 2.78 -0.16 -0.245
vertex 2.55 -0.18 -0.315
vertex 2.78 -0.16 -0.275
endloop
endfacet
facet normal -0.956 -0.294 0
outer loop
vertex 2.78 -0.16 -0.245
vertex 2.78 -0.16 -0.275
vertex 2.86 -0.42 -0.445
endloop
endfacet
facet normal -0.956 -0.294 0
outer loop
vertex 2.86 -0.42 -0.445
vertex 2.78 -0.16 -0.275
vertex 2.86 -0.42 -0.475
endloop
endfacet
facet normal 0.612 0.791 0
outer loop
vertex 2.86 -0.42 -0.445
vertex 2.86 -0.42 -0.475
vertex 2.55 -0.18 -0.285
endloop
endfacet
facet normal 0.612 0.791 0
outer loop
vertex 2.55 -0.18 -0.285
vertex 2.86 -0.42 -0.475
vertex 2.55 -0.18 -0.315
endloop
endfacet
facet normal 0 -1 0
outer loop
vertex 3.86 0.015 0.052
vertex 4.1 0.015 -0.108
vertex 4.62 0.015 0.972
endloop
endfacet
facet normal 0 1 0
outer loop
vertex 3.86 -0.015 0.052
vertex 4.62 -0.015 0.972
vertex 4.1 -0.015 -0.108
endloop
endfacet
facet normal 0 -1 0
outer loop
vertex 3.86 0.015 0.052
vertex 4.62 0.015 0.972
vertex 4.44 0.015 1.012
endloop
endfacet
facet normal 0 1 0
outer loop
vertex 3.86 -0.015 0.052
vertex 4.44 -0.015 1.012
vertex 4.62 -0.015 0.972
endloop
endfacet
facet normal 0.555 0 0.832
outer loop
vertex 3.86 0.015 0.052
vertex 3.86 -0.015 0.052
vertex 4.1 0.015 -0.108
endloop
endfacet
facet normal 0.555 0 0.832
outer loop
vertex 4.1 0.015 -0.108
vertex 3.86 -0.015 0.052
vertex 4.1 -0.015 -0.108
endloop
endfacet
facet normal -0.901 0 0.434
outer loop
vertex 4.1 0.015 -0.108
vertex 4.1 -0.015 -0.108
vertex 4.62 0.015 0.972
endloop
endfacet
facet normal -0.901 0 0.434
outer loop
vertex 4.62 0.015 0.972
vertex 4.1 -0.015 -0.108
vertex 4.62 -0.015 0.972
endloop
endfacet
facet normal -0.217 0 -0.976
outer loop
vertex 4.62 0.015 0.972
vertex 4.62 -0.015 0.972
vertex 4.44 0.015 1.012
endloop
endfacet
facet normal -0.217 0 -0.976
outer loop
vertex 4.44 0.015 1.012
vertex 4.62 -0.015 0.972
vertex 4.44 -0.015 1.012
endloop
endfacet
facet normal 0.856 0 -0.517
outer loop
vertex 4.44 0.015 1.012
vertex 4.44 -0.015 1.012
vertex 3.86 0.015 0.052
endloop
endfacet
facet normal 0.856 0 -0.517
outer loop
vertex 3.86 0.015 0.052
vertex 4.44 -0.015 1.012
vertex 3.86 -0.015 0.052
endloop
endfacet
facet normal 0 1 0
outer loop
vertex 3.9 0.015 -0.108
vertex 4.1 0.015 -0.008
vertex 4.5 0.015 -0.888
endloop
endfacet
facet normal 0 -1 0
outer loop
vertex 3.9 -0.015 -0.108
vertex 4.5 -0.015 -0.888
vertex 4.1 -0.015 -0.008
endloop
endfacet
facet normal 0 1 0
outer loop
vertex 3.9 0.015 -0.108
vertex 4.5 0.015 -0.888
vertex 4.34 0.015 -0.928
endloop
endfacet
facet normal 0 -1 0
outer loop
vertex 3.9 -0.015 -0.108
vertex 4.34 -0.015 -0.928
vertex 4.5 -0.015 -0.888
endloop
endfacet
facet normal -0.447 0 0.894
outer loop
vertex 3.9 0.015 -0.108
vertex 3.9 -0.015 -0.108
vertex 4.1 0.015 -0.008
endloop
endfacet
facet normal -0.447 0 0.894
outer loop
vertex 4.1 0.015 -0.008
vertex 3.9 -0.015 -0.108
vertex 4.1 -0.015 -0.008
endloop
endfacet
facet normal 0.91 0 0.414
outer loop
vertex 4.1 0.015 -0.008
vertex 4.1 -0.015 -0.008
vertex 4.5 0.015 -0.888
endloop
endfacet
facet normal 0.91 0 0.414
outer loop
vertex 4.5 0.015 -0.888
vertex 4.1 -0.015 -0.008
vertex 4.5 -0.015 -0.888
endloop
endfacet
facet normal 0.243 0 -0.97
outer loop
vertex 4.5 0.015 -0.888
vertex 4.5 -0.015 -0.888
vertex 4.34 0.015 -0.928
endloop
endfacet
facet normal 0.243 0 -0.97
outer loop
vertex 4.34 0.015 -0.928
vertex 4.5 -0.015 -0.888
vertex 4.34 -0.015 -0.928
endloop
endfacet
facet normal -0.881 0 -0.473
outer loop
vertex 4.34 0.015 -0.928
vertex 4.34 -0.015 -0.928
vertex 3.9 0.015 -0.108
endloop
endfacet
facet normal -0.881 0 -0.473
outer loop
vertex 3.9 0.015 -0.108
vertex 4.34 -0.015 -0.928
vertex 3.9 -0.015 -0.108
endloop
endfacet
endsolid shark
